M48
;DRILL file {KiCad 4.0.1-stable} date 3/3/2016 12:21:40 AM
;FORMAT={2:4/ absolute / inch / keep zeros}
FMAT,2
INCH,TZ
T1C0.016
T2C0.032
T3C0.039
T4C0.040
%
G90
G05
M72
T1
X001969Y063583
X001969Y039961
X001969Y016339
X002126Y076043
X002362Y066240
X002362Y042618
X002362Y018996
X002953Y060039
X002953Y059547
X002953Y058957
X002953Y058465
X002953Y036417
X002953Y035925
X002953Y035335
X002953Y034843
X002953Y012795
X002953Y012303
X002953Y011713
X002953Y011220
X003307Y064370
X003307Y040748
X003307Y017126
X003346Y073228
X003346Y063386
X003346Y049606
X003346Y039764
X003346Y025984
X003346Y016142
X003740Y072638
X003740Y049016
X003740Y025394
X004035Y062303
X004035Y038681
X004035Y015059
X004429Y074311
X004429Y050689
X004429Y027067
X004441Y063102
X004441Y039480
X004441Y015858
X004921Y073819
X004921Y062303
X004921Y050197
X004921Y038681
X004921Y026575
X004921Y015059
X005217Y058465
X005217Y034843
X005217Y011220
X005512Y065846
X005512Y065354
X005512Y064862
X005512Y064370
X005512Y042224
X005512Y041732
X005512Y041240
X005512Y040748
X005512Y018602
X005512Y018110
X005512Y017618
X005512Y017126
X005906Y063878
X005906Y062894
X005906Y040256
X005906Y039272
X005906Y016634
X005906Y015650
X006988Y068602
X006988Y044980
X006988Y021358
X007283Y058858
X007283Y035236
X007283Y011614
X008858Y062500
X008858Y038878
X008858Y015256
X011713Y071142
X011713Y067913
X011713Y059331
X011713Y056102
X011713Y047520
X011713Y044291
X011713Y035709
X011713Y032480
X011713Y023898
X011713Y020669
X011713Y012087
X011713Y008858
X011811Y074311
X011811Y062500
X011811Y050689
X011811Y038878
X011811Y027067
X011811Y015256
X012657Y067756
X012657Y055945
X012657Y044134
X012657Y032323
X012657Y020512
X012657Y008701
X012815Y074370
X012815Y062559
X012815Y050748
X012815Y038937
X012815Y027126
X012815Y015315
X013189Y070965
X013189Y059154
X013189Y047343
X013189Y035531
X013189Y023720
X013189Y011909
X013209Y071772
X013209Y059961
X013209Y048150
X013209Y036339
X013209Y024528
X013209Y012717
X014705Y074370
X014705Y062559
X014705Y050748
X014705Y038937
X014705Y027126
X014705Y015315
X014941Y076102
X014941Y073976
X014941Y064291
X014941Y062165
X014941Y052480
X014941Y050354
X014941Y040669
X014941Y038543
X014941Y028858
X014941Y026732
X014941Y017047
X014941Y014921
X015354Y066732
X015354Y054921
X015354Y043110
X015354Y031299
X015354Y019488
X015354Y007677
X015728Y065551
X015728Y053740
X015728Y041929
X015728Y030118
X015728Y018307
X015728Y006496
X015925Y068701
X015925Y056890
X015925Y045079
X015925Y033268
X015925Y021457
X015925Y009646
X015965Y071535
X015965Y068201
X015965Y059724
X015965Y056390
X015965Y047913
X015965Y044579
X015965Y036102
X015965Y032768
X015965Y024291
X015965Y020957
X015965Y012480
X015965Y009146
X016122Y074921
X016122Y063110
X016122Y051299
X016122Y039488
X016122Y027677
X016122Y015866
X016201Y072638
X016201Y060827
X016201Y049016
X016201Y037205
X016201Y025394
X016201Y013583
X016280Y065551
X016280Y053740
X016280Y041929
X016280Y030118
X016280Y018307
X016280Y006496
X016339Y084744
X016437Y072874
X016437Y061063
X016437Y049252
X016437Y037441
X016437Y025630
X016437Y013819
X016752Y065551
X016752Y053740
X016752Y041929
X016752Y030118
X016752Y018307
X016752Y006496
X016831Y071535
X016831Y059724
X016831Y047913
X016831Y036102
X016831Y024291
X016831Y012480
X017067Y073504
X017067Y061693
X017067Y049882
X017067Y038071
X017067Y026260
X017067Y014449
X017067Y071772
X017067Y068465
X017067Y059961
X017067Y056654
X017067Y048150
X017067Y044843
X017067Y036339
X017067Y033031
X017067Y024528
X017067Y021220
X017067Y012717
X017067Y009409
X017126Y084744
X017303Y065551
X017303Y053740
X017303Y041929
X017303Y030118
X017303Y018307
X017303Y006496
X017520Y066732
X017520Y054921
X017520Y043110
X017520Y031299
X017520Y019488
X017520Y007677
X017854Y070748
X017854Y058937
X017854Y047126
X017854Y035315
X017854Y023504
X017854Y011693
X018091Y072008
X018091Y060197
X018091Y048386
X018091Y036575
X018091Y024764
X018091Y012953
X018110Y081102
X018406Y070276
X018406Y058465
X018406Y046654
X018406Y034843
X018406Y023031
X018406Y011220
X018419Y069081
X018419Y057270
X018419Y045459
X018419Y033648
X018419Y021837
X018419Y010026
X018484Y073031
X018484Y072638
X018484Y061220
X018484Y060827
X018484Y049409
X018484Y049016
X018484Y037598
X018484Y037205
X018484Y025787
X018484Y025394
X018484Y013976
X018484Y013583
X018642Y071063
X018642Y059252
X018642Y047441
X018642Y035630
X018642Y023819
X018642Y012008
X018720Y071614
X018720Y059803
X018720Y047992
X018720Y036181
X018720Y024370
X018720Y012559
X018957Y075394
X018957Y063583
X018957Y051772
X018957Y039961
X018957Y028150
X018957Y016339
X019035Y069646
X019035Y057835
X019035Y046024
X019035Y034213
X019035Y022402
X019035Y010591
X019193Y070276
X019193Y058465
X019193Y046654
X019193Y034843
X019193Y023031
X019193Y011220
X019547Y071850
X019547Y060039
X019547Y048228
X019547Y036417
X019547Y024606
X019547Y012795
X019665Y076102
X019665Y064291
X019665Y052480
X019665Y040669
X019665Y028858
X019665Y017047
X019862Y074902
X019862Y063091
X019862Y051280
X019862Y039469
X019862Y027657
X019862Y015846
X019980Y069094
X019980Y057283
X019980Y045472
X019980Y033661
X019980Y021850
X019980Y010039
X020335Y071850
X020335Y060039
X020335Y048228
X020335Y036417
X020335Y024606
X020335Y012795
X020531Y068228
X020531Y056417
X020531Y044606
X020531Y032795
X020531Y020984
X020531Y009173
X020571Y082677
X020610Y074370
X020610Y062559
X020610Y050748
X020610Y038937
X020610Y027126
X020610Y015315
X020866Y081102
X021063Y083760
X021122Y071850
X021122Y060039
X021122Y048228
X021122Y036417
X021122Y024606
X021122Y012795
X021555Y082677
X021791Y067913
X021791Y056102
X021791Y044291
X021791Y032480
X021791Y020669
X021791Y008858
X021909Y071850
X021909Y060039
X021909Y048228
X021909Y036417
X021909Y024606
X021909Y012795
X022047Y083760
X022185Y072638
X022185Y060827
X022185Y049016
X022185Y037205
X022185Y025394
X022185Y013583
X022539Y081693
X023031Y083760
X023130Y081693
X023524Y083760
X023524Y071142
X023524Y067913
X023524Y059331
X023524Y056102
X023524Y047520
X023524Y044291
X023524Y035709
X023524Y032480
X023524Y023898
X023524Y020669
X023524Y012087
X023524Y008858
X023622Y085236
X023622Y074311
X023622Y062500
X023622Y050689
X023622Y038878
X023622Y027067
X023622Y015256
X024409Y084744
X024469Y067756
X024469Y055945
X024469Y044134
X024469Y032323
X024469Y020512
X024469Y008701
X024626Y074370
X024626Y062559
X024626Y050748
X024626Y038937
X024626Y027126
X024626Y015315
X025000Y070965
X025000Y059154
X025000Y047343
X025000Y035531
X025000Y023720
X025000Y011909
X025020Y071772
X025020Y059961
X025020Y048150
X025020Y036339
X025020Y024528
X025020Y012717
X026378Y084252
X026516Y074370
X026516Y062559
X026516Y050748
X026516Y038937
X026516Y027126
X026516Y015315
X026575Y082087
X026752Y076102
X026752Y073976
X026752Y064291
X026752Y062165
X026752Y052480
X026752Y050354
X026752Y040669
X026752Y038543
X026752Y028858
X026752Y026732
X026752Y017047
X026752Y014921
X026870Y084252
X027165Y066732
X027165Y054921
X027165Y043110
X027165Y031299
X027165Y019488
X027165Y007677
X027461Y084252
X027539Y065551
X027539Y053740
X027539Y041929
X027539Y030118
X027539Y018307
X027539Y006496
X027736Y068701
X027736Y056890
X027736Y045079
X027736Y033268
X027736Y021457
X027736Y009646
X027776Y071535
X027776Y068201
X027776Y059724
X027776Y056390
X027776Y047913
X027776Y044579
X027776Y036102
X027776Y032768
X027776Y024291
X027776Y020957
X027776Y012480
X027776Y009146
X027933Y074921
X027933Y063110
X027933Y051299
X027933Y039488
X027933Y027677
X027933Y015866
X027953Y084252
X028012Y072638
X028012Y060827
X028012Y049016
X028012Y037205
X028012Y025394
X028012Y013583
X028091Y065551
X028091Y053740
X028091Y041929
X028091Y030118
X028091Y018307
X028091Y006496
X028248Y072874
X028248Y061063
X028248Y049252
X028248Y037441
X028248Y025630
X028248Y013819
X028563Y065551
X028563Y053740
X028563Y041929
X028563Y030118
X028563Y018307
X028563Y006496
X028642Y071535
X028642Y059724
X028642Y047913
X028642Y036102
X028642Y024291
X028642Y012480
X028878Y073504
X028878Y061693
X028878Y049882
X028878Y038071
X028878Y026260
X028878Y014449
X028878Y071772
X028878Y068465
X028878Y059961
X028878Y056654
X028878Y048150
X028878Y044843
X028878Y036339
X028878Y033031
X028878Y024528
X028878Y021220
X028878Y012717
X028878Y009409
X029114Y065551
X029114Y053740
X029114Y041929
X029114Y030118
X029114Y018307
X029114Y006496
X029331Y066732
X029331Y054921
X029331Y043110
X029331Y031299
X029331Y019488
X029331Y007677
X029528Y079724
X029665Y070748
X029665Y058937
X029665Y047126
X029665Y035315
X029665Y023504
X029665Y011693
X029902Y072008
X029902Y060197
X029902Y048386
X029902Y036575
X029902Y024764
X029902Y012953
X030217Y070276
X030217Y058465
X030217Y046654
X030217Y034843
X030217Y023031
X030217Y011220
X030230Y069081
X030230Y057270
X030230Y045459
X030230Y033648
X030230Y021837
X030230Y010026
X030295Y073031
X030295Y072638
X030295Y061220
X030295Y060827
X030295Y049409
X030295Y049016
X030295Y037598
X030295Y037205
X030295Y025787
X030295Y025394
X030295Y013976
X030295Y013583
X030453Y071063
X030453Y059252
X030453Y047441
X030453Y035630
X030453Y023819
X030453Y012008
X030531Y071614
X030531Y059803
X030531Y047992
X030531Y036181
X030531Y024370
X030531Y012559
X030768Y075394
X030768Y063583
X030768Y051772
X030768Y039961
X030768Y028150
X030768Y016339
X030846Y069646
X030846Y057835
X030846Y046024
X030846Y034213
X030846Y022402
X030846Y010591
X031004Y070276
X031004Y058465
X031004Y046654
X031004Y034843
X031004Y023031
X031004Y011220
X031358Y071850
X031358Y060039
X031358Y048228
X031358Y036417
X031358Y024606
X031358Y012795
X031476Y076102
X031476Y064291
X031476Y052480
X031476Y040669
X031476Y028858
X031476Y017047
X031673Y074902
X031673Y063091
X031673Y051280
X031673Y039469
X031673Y027657
X031673Y015846
X031791Y069094
X031791Y057283
X031791Y045472
X031791Y033661
X031791Y021850
X031791Y010039
X032146Y071850
X032146Y060039
X032146Y048228
X032146Y036417
X032146Y024606
X032146Y012795
X032343Y068228
X032343Y056417
X032343Y044606
X032343Y032795
X032343Y020984
X032343Y009173
X032421Y074370
X032421Y062559
X032421Y050748
X032421Y038937
X032421Y027126
X032421Y015315
X032933Y071850
X032933Y060039
X032933Y048228
X032933Y036417
X032933Y024606
X032933Y012795
X033602Y067913
X033602Y056102
X033602Y044291
X033602Y032480
X033602Y020669
X033602Y008858
X033720Y071850
X033720Y060039
X033720Y048228
X033720Y036417
X033720Y024606
X033720Y012795
X033996Y072638
X033996Y060827
X033996Y049016
X033996Y037205
X033996Y025394
X033996Y013583
X035335Y071142
X035335Y067913
X035335Y059331
X035335Y056102
X035335Y047520
X035335Y044291
X035335Y035709
X035335Y032480
X035335Y023898
X035335Y020669
X035335Y012087
X035335Y008858
X035433Y074311
X035433Y062500
X035433Y050689
X035433Y038878
X035433Y027067
X035433Y015256
X036280Y067756
X036280Y055945
X036280Y044134
X036280Y032323
X036280Y020512
X036280Y008701
X036437Y074370
X036437Y062559
X036437Y050748
X036437Y038937
X036437Y027126
X036437Y015315
X036811Y070965
X036811Y059154
X036811Y047343
X036811Y035531
X036811Y023720
X036811Y011909
X036831Y071772
X036831Y059961
X036831Y048150
X036831Y036339
X036831Y024528
X036831Y012717
X038327Y074370
X038327Y062559
X038327Y050748
X038327Y038937
X038327Y027126
X038327Y015315
X038563Y076102
X038563Y073976
X038563Y064291
X038563Y062165
X038563Y052480
X038563Y050354
X038563Y040669
X038563Y038543
X038563Y028858
X038563Y026732
X038563Y017047
X038563Y014921
X038976Y066732
X038976Y054921
X038976Y043110
X038976Y031299
X038976Y019488
X038976Y007677
X039350Y065551
X039350Y053740
X039350Y041929
X039350Y030118
X039350Y018307
X039350Y006496
X039547Y068701
X039547Y056890
X039547Y045079
X039547Y033268
X039547Y021457
X039547Y009646
X039587Y071535
X039587Y068201
X039587Y059724
X039587Y056390
X039587Y047913
X039587Y044579
X039587Y036102
X039587Y032768
X039587Y024291
X039587Y020957
X039587Y012480
X039587Y009146
X039744Y074921
X039744Y063110
X039744Y051299
X039744Y039488
X039744Y027677
X039744Y015866
X039823Y072638
X039823Y060827
X039823Y049016
X039823Y037205
X039823Y025394
X039823Y013583
X039862Y084744
X039902Y065551
X039902Y053740
X039902Y041929
X039902Y030118
X039902Y018307
X039902Y006496
X040059Y072874
X040059Y061063
X040059Y049252
X040059Y037441
X040059Y025630
X040059Y013819
X040374Y065551
X040374Y053740
X040374Y041929
X040374Y030118
X040374Y018307
X040374Y006496
X040453Y071535
X040453Y059724
X040453Y047913
X040453Y036102
X040453Y024291
X040453Y012480
X040689Y073504
X040689Y061693
X040689Y049882
X040689Y038071
X040689Y026260
X040689Y014449
X040689Y071772
X040689Y068465
X040689Y059961
X040689Y056654
X040689Y048150
X040689Y044843
X040689Y036339
X040689Y033031
X040689Y024528
X040689Y021220
X040689Y012717
X040689Y009409
X040748Y084744
X040925Y065551
X040925Y053740
X040925Y041929
X040925Y030118
X040925Y018307
X040925Y006496
X041142Y066732
X041142Y054921
X041142Y043110
X041142Y031299
X041142Y019488
X041142Y007677
X041476Y070748
X041476Y058937
X041476Y047126
X041476Y035315
X041476Y023504
X041476Y011693
X041713Y072008
X041713Y060197
X041713Y048386
X041713Y036575
X041713Y024764
X041713Y012953
X041732Y081102
X042028Y070276
X042028Y058465
X042028Y046654
X042028Y034843
X042028Y023031
X042028Y011220
X042041Y069081
X042041Y057270
X042041Y045459
X042041Y033648
X042041Y021837
X042041Y010026
X042106Y073031
X042106Y072638
X042106Y061220
X042106Y060827
X042106Y049409
X042106Y049016
X042106Y037598
X042106Y037205
X042106Y025787
X042106Y025394
X042106Y013976
X042106Y013583
X042264Y071063
X042264Y059252
X042264Y047441
X042264Y035630
X042264Y023819
X042264Y012008
X042343Y071614
X042343Y059803
X042343Y047992
X042343Y036181
X042343Y024370
X042343Y012559
X042579Y075394
X042579Y063583
X042579Y051772
X042579Y039961
X042579Y028150
X042579Y016339
X042657Y069646
X042657Y057835
X042657Y046024
X042657Y034213
X042657Y022402
X042657Y010591
X042815Y070276
X042815Y058465
X042815Y046654
X042815Y034843
X042815Y023031
X042815Y011220
X043169Y071850
X043169Y060039
X043169Y048228
X043169Y036417
X043169Y024606
X043169Y012795
X043287Y076102
X043287Y064291
X043287Y052480
X043287Y040669
X043287Y028858
X043287Y017047
X043484Y074902
X043484Y063091
X043484Y051280
X043484Y039469
X043484Y027657
X043484Y015846
X043602Y069094
X043602Y057283
X043602Y045472
X043602Y033661
X043602Y021850
X043602Y010039
X043957Y071850
X043957Y060039
X043957Y048228
X043957Y036417
X043957Y024606
X043957Y012795
X044154Y068228
X044154Y056417
X044154Y044606
X044154Y032795
X044154Y020984
X044154Y009173
X044193Y082677
X044232Y074370
X044232Y062559
X044232Y050748
X044232Y038937
X044232Y027126
X044232Y015315
X044488Y081102
X044685Y083760
X044744Y071850
X044744Y060039
X044744Y048228
X044744Y036417
X044744Y024606
X044744Y012795
X045177Y082677
X045413Y067913
X045413Y056102
X045413Y044291
X045413Y032480
X045413Y020669
X045413Y008858
X045531Y071850
X045531Y060039
X045531Y048228
X045531Y036417
X045531Y024606
X045531Y012795
X045669Y083760
X045807Y072638
X045807Y060827
X045807Y049016
X045807Y037205
X045807Y025394
X045807Y013583
X046161Y081693
X046654Y083760
X046752Y081693
X047146Y083760
X047146Y071142
X047146Y067913
X047146Y059331
X047146Y056102
X047146Y047520
X047146Y044291
X047146Y035709
X047146Y032480
X047146Y023898
X047146Y020669
X047146Y012087
X047146Y008858
X047244Y085236
X047244Y074311
X047244Y062500
X047244Y050689
X047244Y038878
X047244Y027067
X047244Y015256
X047835Y084744
X048091Y067756
X048091Y055945
X048091Y044134
X048091Y032323
X048091Y020512
X048091Y008701
X048248Y074370
X048248Y062559
X048248Y050748
X048248Y038937
X048248Y027126
X048248Y015315
X048622Y070965
X048622Y059154
X048622Y047343
X048622Y035531
X048622Y023720
X048622Y011909
X048642Y071772
X048642Y059961
X048642Y048150
X048642Y036339
X048642Y024528
X048642Y012717
X050000Y084252
X050138Y074370
X050138Y062559
X050138Y050748
X050138Y038937
X050138Y027126
X050138Y015315
X050197Y082087
X050374Y076102
X050374Y073976
X050374Y064291
X050374Y062165
X050374Y052480
X050374Y050354
X050374Y040669
X050374Y038543
X050374Y028858
X050374Y026732
X050374Y017047
X050374Y014921
X050492Y084252
X050787Y066732
X050787Y054921
X050787Y043110
X050787Y031299
X050787Y019488
X050787Y007677
X051083Y084252
X051161Y065551
X051161Y053740
X051161Y041929
X051161Y030118
X051161Y018307
X051161Y006496
X051358Y068701
X051358Y056890
X051358Y045079
X051358Y033268
X051358Y021457
X051358Y009646
X051398Y071535
X051398Y068201
X051398Y059724
X051398Y056390
X051398Y047913
X051398Y044579
X051398Y036102
X051398Y032768
X051398Y024291
X051398Y020957
X051398Y012480
X051398Y009146
X051555Y074921
X051555Y063110
X051555Y051299
X051555Y039488
X051555Y027677
X051555Y015866
X051575Y084252
X051634Y072638
X051634Y060827
X051634Y049016
X051634Y037205
X051634Y025394
X051634Y013583
X051713Y065551
X051713Y053740
X051713Y041929
X051713Y030118
X051713Y018307
X051713Y006496
X051870Y072874
X051870Y061063
X051870Y049252
X051870Y037441
X051870Y025630
X051870Y013819
X052185Y065551
X052185Y053740
X052185Y041929
X052185Y030118
X052185Y018307
X052185Y006496
X052264Y071535
X052264Y059724
X052264Y047913
X052264Y036102
X052264Y024291
X052264Y012480
X052500Y073504
X052500Y061693
X052500Y049882
X052500Y038071
X052500Y026260
X052500Y014449
X052500Y071772
X052500Y068465
X052500Y059961
X052500Y056654
X052500Y048150
X052500Y044843
X052500Y036339
X052500Y033031
X052500Y024528
X052500Y021220
X052500Y012717
X052500Y009409
X052736Y065551
X052736Y053740
X052736Y041929
X052736Y030118
X052736Y018307
X052736Y006496
X052953Y066732
X052953Y054921
X052953Y043110
X052953Y031299
X052953Y019488
X052953Y007677
X053150Y079724
X053287Y070748
X053287Y058937
X053287Y047126
X053287Y035315
X053287Y023504
X053287Y011693
X053524Y072008
X053524Y060197
X053524Y048386
X053524Y036575
X053524Y024764
X053524Y012953
X053839Y070276
X053839Y058465
X053839Y046654
X053839Y034843
X053839Y023031
X053839Y011220
X053852Y069081
X053852Y057270
X053852Y045459
X053852Y033648
X053852Y021837
X053852Y010026
X053917Y073031
X053917Y072638
X053917Y061220
X053917Y060827
X053917Y049409
X053917Y049016
X053917Y037598
X053917Y037205
X053917Y025787
X053917Y025394
X053917Y013976
X053917Y013583
X054075Y071063
X054075Y059252
X054075Y047441
X054075Y035630
X054075Y023819
X054075Y012008
X054154Y071614
X054154Y059803
X054154Y047992
X054154Y036181
X054154Y024370
X054154Y012559
X054390Y075394
X054390Y063583
X054390Y051772
X054390Y039961
X054390Y028150
X054390Y016339
X054469Y069646
X054469Y057835
X054469Y046024
X054469Y034213
X054469Y022402
X054469Y010591
X054626Y070276
X054626Y058465
X054626Y046654
X054626Y034843
X054626Y023031
X054626Y011220
X054980Y071850
X054980Y060039
X054980Y048228
X054980Y036417
X054980Y024606
X054980Y012795
X055098Y076102
X055098Y064291
X055098Y052480
X055098Y040669
X055098Y028858
X055098Y017047
X055295Y074902
X055295Y063091
X055295Y051280
X055295Y039469
X055295Y027657
X055295Y015846
X055413Y069094
X055413Y057283
X055413Y045472
X055413Y033661
X055413Y021850
X055413Y010039
X055768Y071850
X055768Y060039
X055768Y048228
X055768Y036417
X055768Y024606
X055768Y012795
X055965Y068228
X055965Y056417
X055965Y044606
X055965Y032795
X055965Y020984
X055965Y009173
X056043Y074370
X056043Y062559
X056043Y050748
X056043Y038937
X056043Y027126
X056043Y015315
X056555Y071850
X056555Y060039
X056555Y048228
X056555Y036417
X056555Y024606
X056555Y012795
X057224Y067913
X057224Y056102
X057224Y044291
X057224Y032480
X057224Y020669
X057224Y008858
X057343Y071850
X057343Y060039
X057343Y048228
X057343Y036417
X057343Y024606
X057343Y012795
X057618Y072638
X057618Y060827
X057618Y049016
X057618Y037205
X057618Y025394
X057618Y013583
X058957Y071142
X058957Y067913
X058957Y059331
X058957Y056102
X058957Y047520
X058957Y044291
X058957Y035709
X058957Y032480
X058957Y023898
X058957Y020669
X058957Y012087
X058957Y008858
X059055Y074311
X059055Y062500
X059055Y050689
X059055Y038878
X059055Y027067
X059055Y015256
X059902Y067756
X059902Y055945
X059902Y044134
X059902Y032323
X059902Y020512
X059902Y008701
X060059Y074370
X060059Y062559
X060059Y050748
X060059Y038937
X060059Y027126
X060059Y015315
X060433Y070965
X060433Y059154
X060433Y047343
X060433Y035531
X060433Y023720
X060433Y011909
X060453Y071772
X060453Y059961
X060453Y048150
X060453Y036339
X060453Y024528
X060453Y012717
X061949Y074370
X061949Y062559
X061949Y050748
X061949Y038937
X061949Y027126
X061949Y015315
X062185Y076102
X062185Y073976
X062185Y064291
X062185Y062165
X062185Y052480
X062185Y050354
X062185Y040669
X062185Y038543
X062185Y028858
X062185Y026732
X062185Y017047
X062185Y014921
X062598Y066732
X062598Y054921
X062598Y043110
X062598Y031299
X062598Y019488
X062598Y007677
X062972Y065551
X062972Y053740
X062972Y041929
X062972Y030118
X062972Y018307
X062972Y006496
X063169Y068701
X063169Y056890
X063169Y045079
X063169Y033268
X063169Y021457
X063169Y009646
X063209Y071535
X063209Y068201
X063209Y059724
X063209Y056390
X063209Y047913
X063209Y044579
X063209Y036102
X063209Y032768
X063209Y024291
X063209Y020957
X063209Y012480
X063209Y009146
X063366Y074921
X063366Y063110
X063366Y051299
X063366Y039488
X063366Y027677
X063366Y015866
X063445Y072638
X063445Y060827
X063445Y049016
X063445Y037205
X063445Y025394
X063445Y013583
X063524Y065551
X063524Y053740
X063524Y041929
X063524Y030118
X063524Y018307
X063524Y006496
X063583Y084744
X063681Y072874
X063681Y061063
X063681Y049252
X063681Y037441
X063681Y025630
X063681Y013819
X063996Y065551
X063996Y053740
X063996Y041929
X063996Y030118
X063996Y018307
X063996Y006496
X064075Y071535
X064075Y059724
X064075Y047913
X064075Y036102
X064075Y024291
X064075Y012480
X064311Y073504
X064311Y061693
X064311Y049882
X064311Y038071
X064311Y026260
X064311Y014449
X064311Y071772
X064311Y068465
X064311Y059961
X064311Y056654
X064311Y048150
X064311Y044843
X064311Y036339
X064311Y033031
X064311Y024528
X064311Y021220
X064311Y012717
X064311Y009409
X064370Y084744
X064547Y065551
X064547Y053740
X064547Y041929
X064547Y030118
X064547Y018307
X064547Y006496
X064764Y066732
X064764Y054921
X064764Y043110
X064764Y031299
X064764Y019488
X064764Y007677
X065098Y070748
X065098Y058937
X065098Y047126
X065098Y035315
X065098Y023504
X065098Y011693
X065335Y072008
X065335Y060197
X065335Y048386
X065335Y036575
X065335Y024764
X065335Y012953
X065354Y081102
X065650Y070276
X065650Y058465
X065650Y046654
X065650Y034843
X065650Y023031
X065650Y011220
X065663Y069081
X065663Y057270
X065663Y045459
X065663Y033648
X065663Y021837
X065663Y010026
X065728Y073031
X065728Y072638
X065728Y061220
X065728Y060827
X065728Y049409
X065728Y049016
X065728Y037598
X065728Y037205
X065728Y025787
X065728Y025394
X065728Y013976
X065728Y013583
X065886Y071063
X065886Y059252
X065886Y047441
X065886Y035630
X065886Y023819
X065886Y012008
X065965Y071614
X065965Y059803
X065965Y047992
X065965Y036181
X065965Y024370
X065965Y012559
X066201Y075394
X066201Y063583
X066201Y051772
X066201Y039961
X066201Y028150
X066201Y016339
X066280Y069646
X066280Y057835
X066280Y046024
X066280Y034213
X066280Y022402
X066280Y010591
X066437Y070276
X066437Y058465
X066437Y046654
X066437Y034843
X066437Y023031
X066437Y011220
X066791Y071850
X066791Y060039
X066791Y048228
X066791Y036417
X066791Y024606
X066791Y012795
X066909Y076102
X066909Y064291
X066909Y052480
X066909Y040669
X066909Y028858
X066909Y017047
X067106Y074902
X067106Y063091
X067106Y051280
X067106Y039469
X067106Y027657
X067106Y015846
X067224Y069094
X067224Y057283
X067224Y045472
X067224Y033661
X067224Y021850
X067224Y010039
X067579Y071850
X067579Y060039
X067579Y048228
X067579Y036417
X067579Y024606
X067579Y012795
X067776Y068228
X067776Y056417
X067776Y044606
X067776Y032795
X067776Y020984
X067776Y009173
X067815Y082677
X067854Y074370
X067854Y062559
X067854Y050748
X067854Y038937
X067854Y027126
X067854Y015315
X068110Y081102
X068307Y083760
X068366Y071850
X068366Y060039
X068366Y048228
X068366Y036417
X068366Y024606
X068366Y012795
X068799Y082677
X069035Y067913
X069035Y056102
X069035Y044291
X069035Y032480
X069035Y020669
X069035Y008858
X069154Y071850
X069154Y060039
X069154Y048228
X069154Y036417
X069154Y024606
X069154Y012795
X069291Y083760
X069429Y072638
X069429Y060827
X069429Y049016
X069429Y037205
X069429Y025394
X069429Y013583
X069783Y081693
X070276Y083760
X070374Y081693
X070768Y083760
X070768Y071142
X070768Y067913
X070768Y059331
X070768Y056102
X070768Y047520
X070768Y044291
X070768Y035709
X070768Y032480
X070768Y023898
X070768Y020669
X070768Y012087
X070768Y008858
X070866Y085236
X070866Y074311
X070866Y062500
X070866Y050689
X070866Y038878
X070866Y027067
X070866Y015256
X071713Y067756
X071713Y055945
X071713Y044134
X071713Y032323
X071713Y020512
X071713Y008701
X071870Y074370
X071870Y062559
X071870Y050748
X071870Y038937
X071870Y027126
X071870Y015315
X072244Y070965
X072244Y059154
X072244Y047343
X072244Y035531
X072244Y023720
X072244Y011909
X072264Y071772
X072264Y059961
X072264Y048150
X072264Y036339
X072264Y024528
X072264Y012717
X073622Y084252
X073760Y074370
X073760Y062559
X073760Y050748
X073760Y038937
X073760Y027126
X073760Y015315
X073819Y082087
X073996Y076102
X073996Y073976
X073996Y064291
X073996Y062165
X073996Y052480
X073996Y050354
X073996Y040669
X073996Y038543
X073996Y028858
X073996Y026732
X073996Y017047
X073996Y014921
X074114Y084252
X074409Y066732
X074409Y054921
X074409Y043110
X074409Y031299
X074409Y019488
X074409Y007677
X074705Y084252
X074783Y065551
X074783Y053740
X074783Y041929
X074783Y030118
X074783Y018307
X074783Y006496
X074980Y068701
X074980Y056890
X074980Y045079
X074980Y033268
X074980Y021457
X074980Y009646
X075020Y071535
X075020Y068201
X075020Y059724
X075020Y056390
X075020Y047913
X075020Y044579
X075020Y036102
X075020Y032768
X075020Y024291
X075020Y020957
X075020Y012480
X075020Y009146
X075177Y074921
X075177Y063110
X075177Y051299
X075177Y039488
X075177Y027677
X075177Y015866
X075197Y084252
X075256Y072638
X075256Y060827
X075256Y049016
X075256Y037205
X075256Y025394
X075256Y013583
X075335Y065551
X075335Y053740
X075335Y041929
X075335Y030118
X075335Y018307
X075335Y006496
X075492Y072874
X075492Y061063
X075492Y049252
X075492Y037441
X075492Y025630
X075492Y013819
X075807Y065551
X075807Y053740
X075807Y041929
X075807Y030118
X075807Y018307
X075807Y006496
X075886Y071535
X075886Y059724
X075886Y047913
X075886Y036102
X075886Y024291
X075886Y012480
X076122Y073504
X076122Y061693
X076122Y049882
X076122Y038071
X076122Y026260
X076122Y014449
X076122Y071772
X076122Y068465
X076122Y059961
X076122Y056654
X076122Y048150
X076122Y044843
X076122Y036339
X076122Y033031
X076122Y024528
X076122Y021220
X076122Y012717
X076122Y009409
X076358Y065551
X076358Y053740
X076358Y041929
X076358Y030118
X076358Y018307
X076358Y006496
X076575Y066732
X076575Y054921
X076575Y043110
X076575Y031299
X076575Y019488
X076575Y007677
X076772Y079724
X076909Y070748
X076909Y058937
X076909Y047126
X076909Y035315
X076909Y023504
X076909Y011693
X077146Y072008
X077146Y060197
X077146Y048386
X077146Y036575
X077146Y024764
X077146Y012953
X077461Y070276
X077461Y058465
X077461Y046654
X077461Y034843
X077461Y023031
X077461Y011220
X077474Y069081
X077474Y057270
X077474Y045459
X077474Y033648
X077474Y021837
X077474Y010026
X077539Y073031
X077539Y072638
X077539Y061220
X077539Y060827
X077539Y049409
X077539Y049016
X077539Y037598
X077539Y037205
X077539Y025787
X077539Y025394
X077539Y013976
X077539Y013583
X077697Y071063
X077697Y059252
X077697Y047441
X077697Y035630
X077697Y023819
X077697Y012008
X077776Y071614
X077776Y059803
X077776Y047992
X077776Y036181
X077776Y024370
X077776Y012559
X078012Y075394
X078012Y063583
X078012Y051772
X078012Y039961
X078012Y028150
X078012Y016339
X078091Y069646
X078091Y057835
X078091Y046024
X078091Y034213
X078091Y022402
X078091Y010591
X078248Y070276
X078248Y058465
X078248Y046654
X078248Y034843
X078248Y023031
X078248Y011220
X078602Y071850
X078602Y060039
X078602Y048228
X078602Y036417
X078602Y024606
X078602Y012795
X078720Y076102
X078720Y064291
X078720Y052480
X078720Y040669
X078720Y028858
X078720Y017047
X078917Y074902
X078917Y063091
X078917Y051280
X078917Y039469
X078917Y027657
X078917Y015846
X079035Y069094
X079035Y057283
X079035Y045472
X079035Y033661
X079035Y021850
X079035Y010039
X079390Y071850
X079390Y060039
X079390Y048228
X079390Y036417
X079390Y024606
X079390Y012795
X079587Y068228
X079587Y056417
X079587Y044606
X079587Y032795
X079587Y020984
X079587Y009173
X079665Y074370
X079665Y062559
X079665Y050748
X079665Y038937
X079665Y027126
X079665Y015315
X080177Y071850
X080177Y060039
X080177Y048228
X080177Y036417
X080177Y024606
X080177Y012795
X080846Y067913
X080846Y056102
X080846Y044291
X080846Y032480
X080846Y020669
X080846Y008858
X080965Y071850
X080965Y060039
X080965Y048228
X080965Y036417
X080965Y024606
X080965Y012795
X081240Y072638
X081240Y060827
X081240Y049016
X081240Y037205
X081240Y025394
X081240Y013583
T2
X005890Y082677
X006890Y082677
X007890Y082677
T3
X007874Y073819
X007874Y072819
X007874Y067913
X007874Y066913
X007874Y062008
X007874Y061008
X007874Y056102
X007874Y055102
X007874Y050197
X007874Y049197
X007874Y044291
X007874Y043291
X007874Y038386
X007874Y037386
X007874Y032480
X007874Y031480
X007874Y026575
X007874Y025575
X007874Y020669
X007874Y019669
X007874Y014764
X007874Y013764
X007874Y008858
X007874Y007858
X013173Y079724
X013173Y002362
X013760Y073819
X013760Y072819
X013760Y067913
X013760Y066913
X013760Y062008
X013760Y061008
X013760Y056102
X013760Y055102
X013760Y050197
X013760Y049197
X013760Y044291
X013760Y043291
X013760Y038386
X013760Y037386
X013760Y032480
X013760Y031480
X013760Y026575
X013760Y025575
X013760Y020669
X013760Y019669
X013760Y014764
X013760Y013764
X013760Y008858
X013760Y007858
X014173Y079724
X014173Y002362
X019079Y079724
X019079Y002362
X019665Y073819
X019665Y072819
X019665Y067913
X019665Y066913
X019665Y062008
X019665Y061008
X019665Y056102
X019665Y055102
X019665Y050197
X019665Y049197
X019665Y044291
X019665Y043291
X019665Y038386
X019665Y037386
X019665Y032480
X019665Y031480
X019665Y026575
X019665Y025575
X019665Y020669
X019665Y019669
X019665Y014764
X019665Y013764
X019665Y008858
X019665Y007858
X020079Y079724
X020079Y002362
X024984Y079724
X024984Y002362
X025571Y073819
X025571Y072819
X025571Y067913
X025571Y066913
X025571Y062008
X025571Y061008
X025571Y056102
X025571Y055102
X025571Y050197
X025571Y049197
X025571Y044291
X025571Y043291
X025571Y038386
X025571Y037386
X025571Y032480
X025571Y031480
X025571Y026575
X025571Y025575
X025571Y020669
X025571Y019669
X025571Y014764
X025571Y013764
X025571Y008858
X025571Y007858
X025984Y079724
X025984Y002362
X030890Y079724
X030890Y002362
X031476Y073819
X031476Y072819
X031476Y067913
X031476Y066913
X031476Y062008
X031476Y061008
X031476Y056102
X031476Y055102
X031476Y050197
X031476Y049197
X031476Y044291
X031476Y043291
X031476Y038386
X031476Y037386
X031476Y032480
X031476Y031480
X031476Y026575
X031476Y025575
X031476Y020669
X031476Y019669
X031476Y014764
X031476Y013764
X031476Y008858
X031476Y007858
X031890Y079724
X031890Y002362
X036795Y079724
X036795Y002362
X037382Y073819
X037382Y072819
X037382Y067913
X037382Y066913
X037382Y062008
X037382Y061008
X037382Y056102
X037382Y055102
X037382Y050197
X037382Y049197
X037382Y044291
X037382Y043291
X037382Y038386
X037382Y037386
X037382Y032480
X037382Y031480
X037382Y026575
X037382Y025575
X037382Y020669
X037382Y019669
X037382Y014764
X037382Y013764
X037382Y008858
X037382Y007858
X037795Y079724
X037795Y002362
X042701Y079724
X042701Y002362
X043287Y073819
X043287Y072819
X043287Y067913
X043287Y066913
X043287Y062008
X043287Y061008
X043287Y056102
X043287Y055102
X043287Y050197
X043287Y049197
X043287Y044291
X043287Y043291
X043287Y038386
X043287Y037386
X043287Y032480
X043287Y031480
X043287Y026575
X043287Y025575
X043287Y020669
X043287Y019669
X043287Y014764
X043287Y013764
X043287Y008858
X043287Y007858
X043701Y079724
X043701Y002362
X048606Y079724
X048606Y002362
X049193Y073819
X049193Y072819
X049193Y067913
X049193Y066913
X049193Y062008
X049193Y061008
X049193Y056102
X049193Y055102
X049193Y050197
X049193Y049197
X049193Y044291
X049193Y043291
X049193Y038386
X049193Y037386
X049193Y032480
X049193Y031480
X049193Y026575
X049193Y025575
X049193Y020669
X049193Y019669
X049193Y014764
X049193Y013764
X049193Y008858
X049193Y007858
X049606Y079724
X049606Y002362
X054512Y079724
X054512Y002362
X055098Y073819
X055098Y072819
X055098Y067913
X055098Y066913
X055098Y062008
X055098Y061008
X055098Y056102
X055098Y055102
X055098Y050197
X055098Y049197
X055098Y044291
X055098Y043291
X055098Y038386
X055098Y037386
X055098Y032480
X055098Y031480
X055098Y026575
X055098Y025575
X055098Y020669
X055098Y019669
X055098Y014764
X055098Y013764
X055098Y008858
X055098Y007858
X055512Y079724
X055512Y002362
X060417Y079724
X060417Y002362
X061004Y073819
X061004Y072819
X061004Y067913
X061004Y066913
X061004Y062008
X061004Y061008
X061004Y056102
X061004Y055102
X061004Y050197
X061004Y049197
X061004Y044291
X061004Y043291
X061004Y038386
X061004Y037386
X061004Y032480
X061004Y031480
X061004Y026575
X061004Y025575
X061004Y020669
X061004Y019669
X061004Y014764
X061004Y013764
X061004Y008858
X061004Y007858
X061417Y079724
X061417Y002362
X066323Y079724
X066323Y002362
X066909Y073819
X066909Y072819
X066909Y067913
X066909Y066913
X066909Y062008
X066909Y061008
X066909Y056102
X066909Y055102
X066909Y050197
X066909Y049197
X066909Y044291
X066909Y043291
X066909Y038386
X066909Y037386
X066909Y032480
X066909Y031480
X066909Y026575
X066909Y025575
X066909Y020669
X066909Y019669
X066909Y014764
X066909Y013764
X066909Y008858
X066909Y007858
X067323Y079724
X067323Y002362
X072228Y079724
X072228Y002362
X072815Y073819
X072815Y072819
X072815Y067913
X072815Y066913
X072815Y062008
X072815Y061008
X072815Y056102
X072815Y055102
X072815Y050197
X072815Y049197
X072815Y044291
X072815Y043291
X072815Y038386
X072815Y037386
X072815Y032480
X072815Y031480
X072815Y026575
X072815Y025575
X072815Y020669
X072815Y019669
X072815Y014764
X072815Y013764
X072815Y008858
X072815Y007858
X073228Y079724
X073228Y002362
X078134Y079724
X078134Y002362
X078720Y073819
X078720Y072819
X078720Y067913
X078720Y066913
X078720Y062008
X078720Y061008
X078720Y056102
X078720Y055102
X078720Y050197
X078720Y049197
X078720Y044291
X078720Y043291
X078720Y038386
X078720Y037386
X078720Y032480
X078720Y031480
X078720Y026575
X078720Y025575
X078720Y020669
X078720Y019669
X078720Y014764
X078720Y013764
X078720Y008858
X078720Y007858
X079134Y079724
X079134Y002362
X085630Y073819
X085630Y072819
X085630Y067913
X085630Y066913
X085630Y062008
X085630Y061008
X085630Y056102
X085630Y055102
X085630Y050197
X085630Y049197
X085630Y044291
X085630Y043291
X085630Y038386
X085630Y037386
X085630Y032480
X085630Y031480
X085630Y026575
X085630Y025575
X085630Y020669
X085630Y019669
X085630Y014764
X085630Y013764
X085630Y008858
X085630Y007858
T4
X002953Y081709
X002953Y080709
T0
M30
