G04 #@! TF.FileFunction,Soldermask,Top*
%FSLAX46Y46*%
G04 Gerber Fmt 4.6, Leading zero omitted, Abs format (unit mm)*
G04 Created by KiCad (PCBNEW 4.0.1-stable) date 3/3/2016 12:22:01 AM*
%MOMM*%
G01*
G04 APERTURE LIST*
%ADD10C,0.100000*%
%ADD11R,1.000000X1.800000*%
%ADD12R,2.100000X2.000000*%
%ADD13C,2.000000*%
%ADD14R,1.800000X1.000000*%
%ADD15R,1.000000X1.000000*%
%ADD16R,1.600000X0.700000*%
%ADD17R,1.350000X1.100000*%
%ADD18R,2.000000X2.100000*%
%ADD19R,1.100000X1.350000*%
%ADD20R,0.700000X1.600000*%
%ADD21R,0.700000X0.520000*%
%ADD22R,2.132000X2.132000*%
%ADD23O,2.132000X2.132000*%
%ADD24C,1.624000*%
G04 APERTURE END LIST*
D10*
D11*
X206450000Y6000000D03*
X203550000Y6000000D03*
X146450000Y6000000D03*
X143550000Y6000000D03*
D12*
X20000000Y19960000D03*
D13*
X20000000Y22500000D03*
D12*
X20000000Y79960000D03*
D13*
X20000000Y82500000D03*
D12*
X217500000Y19960000D03*
D13*
X217500000Y22500000D03*
D12*
X217500000Y79960000D03*
D13*
X217500000Y82500000D03*
D12*
X20000000Y34960000D03*
D13*
X20000000Y37500000D03*
D12*
X20000000Y94960000D03*
D13*
X20000000Y97500000D03*
D12*
X217500000Y34960000D03*
D13*
X217500000Y37500000D03*
D12*
X217500000Y94960000D03*
D13*
X217500000Y97500000D03*
D12*
X20000000Y49960000D03*
D13*
X20000000Y52500000D03*
D12*
X20000000Y109960000D03*
D13*
X20000000Y112500000D03*
D12*
X20000000Y64960000D03*
D13*
X20000000Y67500000D03*
D12*
X20000000Y124960000D03*
D13*
X20000000Y127500000D03*
D12*
X217500000Y49960000D03*
D13*
X217500000Y52500000D03*
D12*
X217500000Y109960000D03*
D13*
X217500000Y112500000D03*
D12*
X217500000Y64960000D03*
D13*
X217500000Y67500000D03*
D12*
X217500000Y124960000D03*
D13*
X217500000Y127500000D03*
D14*
X217500000Y28950000D03*
X217500000Y26050000D03*
X217500000Y88950000D03*
X217500000Y86050000D03*
D15*
X8500000Y32500000D03*
X8500000Y28500000D03*
X8500000Y31160000D03*
X8500000Y29840000D03*
X11500000Y31160000D03*
X11500000Y32500000D03*
X11500000Y28500000D03*
X11500000Y29840000D03*
X8500000Y92500000D03*
X8500000Y88500000D03*
X8500000Y91160000D03*
X8500000Y89840000D03*
X11500000Y91160000D03*
X11500000Y92500000D03*
X11500000Y88500000D03*
X11500000Y89840000D03*
D16*
X7300000Y47310000D03*
X7300000Y46040000D03*
X7300000Y44770000D03*
X7300000Y43500000D03*
X7300000Y42230000D03*
X7300000Y40960000D03*
X7300000Y39690000D03*
X12700000Y39690000D03*
X12700000Y40960000D03*
X12700000Y42230000D03*
X12700000Y43500000D03*
X12700000Y44770000D03*
X12700000Y46040000D03*
X12700000Y47310000D03*
X7300000Y107310000D03*
X7300000Y106040000D03*
X7300000Y104770000D03*
X7300000Y103500000D03*
X7300000Y102230000D03*
X7300000Y100960000D03*
X7300000Y99690000D03*
X12700000Y99690000D03*
X12700000Y100960000D03*
X12700000Y102230000D03*
X12700000Y103500000D03*
X12700000Y104770000D03*
X12700000Y106040000D03*
X12700000Y107310000D03*
D17*
X5000000Y44500000D03*
X5000000Y42500000D03*
X5000000Y104500000D03*
X5000000Y102500000D03*
D14*
X217500000Y43950000D03*
X217500000Y41050000D03*
X217500000Y103950000D03*
X217500000Y101050000D03*
X217500000Y73950000D03*
X217500000Y71050000D03*
X217500000Y133950000D03*
X217500000Y131050000D03*
X217500000Y58950000D03*
X217500000Y56050000D03*
X217500000Y118950000D03*
X217500000Y116050000D03*
D18*
X183460000Y202500000D03*
D13*
X186000000Y202500000D03*
D18*
X123460000Y202500000D03*
D13*
X126000000Y202500000D03*
D18*
X168460000Y202500000D03*
D13*
X171000000Y202500000D03*
D18*
X108460000Y202500000D03*
D13*
X111000000Y202500000D03*
D18*
X153460000Y6000000D03*
D13*
X156000000Y6000000D03*
D18*
X93460000Y6000000D03*
D13*
X96000000Y6000000D03*
D18*
X153460000Y202500000D03*
D13*
X156000000Y202500000D03*
D18*
X93460000Y202500000D03*
D13*
X96000000Y202500000D03*
D18*
X183460000Y6000000D03*
D13*
X186000000Y6000000D03*
D18*
X123460000Y6000000D03*
D13*
X126000000Y6000000D03*
D18*
X168460000Y6000000D03*
D13*
X171000000Y6000000D03*
D18*
X108460000Y6000000D03*
D13*
X111000000Y6000000D03*
D18*
X198460000Y202500000D03*
D13*
X201000000Y202500000D03*
D18*
X138460000Y202500000D03*
D13*
X141000000Y202500000D03*
D18*
X198460000Y6000000D03*
D13*
X201000000Y6000000D03*
D18*
X138460000Y6000000D03*
D13*
X141000000Y6000000D03*
D11*
X191450000Y6000000D03*
X188550000Y6000000D03*
X131450000Y6000000D03*
X128550000Y6000000D03*
D19*
X177000000Y216500000D03*
X179000000Y216500000D03*
X117000000Y216500000D03*
X119000000Y216500000D03*
D15*
X191000000Y213000000D03*
X187000000Y213000000D03*
X189660000Y213000000D03*
X188340000Y213000000D03*
X189660000Y210000000D03*
X191000000Y210000000D03*
X187000000Y210000000D03*
X188340000Y210000000D03*
X131000000Y213000000D03*
X127000000Y213000000D03*
X129660000Y213000000D03*
X128340000Y213000000D03*
X129660000Y210000000D03*
X131000000Y210000000D03*
X127000000Y210000000D03*
X128340000Y210000000D03*
D11*
X176450000Y6000000D03*
X173550000Y6000000D03*
X116450000Y6000000D03*
X113550000Y6000000D03*
X161450000Y6000000D03*
X158550000Y6000000D03*
X101450000Y6000000D03*
X98550000Y6000000D03*
D20*
X179810000Y214200000D03*
X178540000Y214200000D03*
X177270000Y214200000D03*
X176000000Y214200000D03*
X174730000Y214200000D03*
X173460000Y214200000D03*
X172190000Y214200000D03*
X172190000Y208800000D03*
X173460000Y208800000D03*
X174730000Y208800000D03*
X176000000Y208800000D03*
X177270000Y208800000D03*
X178540000Y208800000D03*
X179810000Y208800000D03*
X119810000Y214200000D03*
X118540000Y214200000D03*
X117270000Y214200000D03*
X116000000Y214200000D03*
X114730000Y214200000D03*
X113460000Y214200000D03*
X112190000Y214200000D03*
X112190000Y208800000D03*
X113460000Y208800000D03*
X114730000Y208800000D03*
X116000000Y208800000D03*
X117270000Y208800000D03*
X118540000Y208800000D03*
X119810000Y208800000D03*
D12*
X199950000Y19960000D03*
D13*
X199950000Y22500000D03*
D12*
X169950000Y19960000D03*
D13*
X169950000Y22500000D03*
D12*
X139950000Y19960000D03*
D13*
X139950000Y22500000D03*
D12*
X109950000Y19960000D03*
D13*
X109950000Y22500000D03*
D12*
X79950000Y19960000D03*
D13*
X79950000Y22500000D03*
D12*
X49950000Y19960000D03*
D13*
X49950000Y22500000D03*
D12*
X199950000Y49960000D03*
D13*
X199950000Y52500000D03*
D12*
X169950000Y49960000D03*
D13*
X169950000Y52500000D03*
D12*
X139950000Y49960000D03*
D13*
X139950000Y52500000D03*
D12*
X109950000Y49960000D03*
D13*
X109950000Y52500000D03*
D12*
X79950000Y49960000D03*
D13*
X79950000Y52500000D03*
D12*
X49950000Y49960000D03*
D13*
X49950000Y52500000D03*
D12*
X199950000Y79960000D03*
D13*
X199950000Y82500000D03*
D12*
X169950000Y79960000D03*
D13*
X169950000Y82500000D03*
D12*
X139950000Y79960000D03*
D13*
X139950000Y82500000D03*
D12*
X109950000Y79960000D03*
D13*
X109950000Y82500000D03*
D12*
X79950000Y79960000D03*
D13*
X79950000Y82500000D03*
D12*
X49950000Y79960000D03*
D13*
X49950000Y82500000D03*
D12*
X199950000Y109960000D03*
D13*
X199950000Y112500000D03*
D12*
X169950000Y109960000D03*
D13*
X169950000Y112500000D03*
D12*
X139950000Y109960000D03*
D13*
X139950000Y112500000D03*
D12*
X109950000Y109960000D03*
D13*
X109950000Y112500000D03*
D12*
X79950000Y109960000D03*
D13*
X79950000Y112500000D03*
D12*
X49950000Y109960000D03*
D13*
X49950000Y112500000D03*
D12*
X199950000Y139960000D03*
D13*
X199950000Y142500000D03*
D12*
X169950000Y139960000D03*
D13*
X169950000Y142500000D03*
D12*
X139950000Y139960000D03*
D13*
X139950000Y142500000D03*
D12*
X109950000Y139960000D03*
D13*
X109950000Y142500000D03*
D12*
X79950000Y139960000D03*
D13*
X79950000Y142500000D03*
D12*
X49950000Y139960000D03*
D13*
X49950000Y142500000D03*
D12*
X199950000Y169960000D03*
D13*
X199950000Y172500000D03*
D12*
X169950000Y169960000D03*
D13*
X169950000Y172500000D03*
D12*
X139950000Y169960000D03*
D13*
X139950000Y172500000D03*
D12*
X109950000Y169960000D03*
D13*
X109950000Y172500000D03*
D12*
X79950000Y169960000D03*
D13*
X79950000Y172500000D03*
D12*
X184950000Y34960000D03*
D13*
X184950000Y37500000D03*
D12*
X154950000Y34960000D03*
D13*
X154950000Y37500000D03*
D12*
X124950000Y34960000D03*
D13*
X124950000Y37500000D03*
D12*
X94950000Y34960000D03*
D13*
X94950000Y37500000D03*
D12*
X64950000Y34960000D03*
D13*
X64950000Y37500000D03*
D12*
X34950000Y34960000D03*
D13*
X34950000Y37500000D03*
D12*
X184950000Y64960000D03*
D13*
X184950000Y67500000D03*
D12*
X154950000Y64960000D03*
D13*
X154950000Y67500000D03*
D12*
X124950000Y64960000D03*
D13*
X124950000Y67500000D03*
D12*
X94950000Y64960000D03*
D13*
X94950000Y67500000D03*
D12*
X64950000Y64960000D03*
D13*
X64950000Y67500000D03*
D12*
X34950000Y64960000D03*
D13*
X34950000Y67500000D03*
D12*
X184950000Y94960000D03*
D13*
X184950000Y97500000D03*
D12*
X154950000Y94960000D03*
D13*
X154950000Y97500000D03*
D12*
X124950000Y94960000D03*
D13*
X124950000Y97500000D03*
D12*
X94950000Y94960000D03*
D13*
X94950000Y97500000D03*
D12*
X64950000Y94960000D03*
D13*
X64950000Y97500000D03*
D12*
X34950000Y94960000D03*
D13*
X34950000Y97500000D03*
D12*
X184950000Y124960000D03*
D13*
X184950000Y127500000D03*
D12*
X154950000Y124960000D03*
D13*
X154950000Y127500000D03*
D12*
X124950000Y124960000D03*
D13*
X124950000Y127500000D03*
D12*
X94950000Y124960000D03*
D13*
X94950000Y127500000D03*
D12*
X64950000Y124960000D03*
D13*
X64950000Y127500000D03*
D12*
X34950000Y124960000D03*
D13*
X34950000Y127500000D03*
D12*
X184950000Y154960000D03*
D13*
X184950000Y157500000D03*
D12*
X154950000Y154960000D03*
D13*
X154950000Y157500000D03*
D12*
X124950000Y154960000D03*
D13*
X124950000Y157500000D03*
D12*
X94950000Y154960000D03*
D13*
X94950000Y157500000D03*
D12*
X64950000Y154960000D03*
D13*
X64950000Y157500000D03*
D12*
X34950000Y154960000D03*
D13*
X34950000Y157500000D03*
D12*
X184950000Y184960000D03*
D13*
X184950000Y187500000D03*
D12*
X154950000Y184960000D03*
D13*
X154950000Y187500000D03*
D12*
X124950000Y184960000D03*
D13*
X124950000Y187500000D03*
D12*
X94950000Y184960000D03*
D13*
X94950000Y187500000D03*
D12*
X64950000Y184960000D03*
D13*
X64950000Y187500000D03*
D12*
X184950000Y19960000D03*
D13*
X184950000Y22500000D03*
D12*
X154950000Y19960000D03*
D13*
X154950000Y22500000D03*
D12*
X124950000Y19960000D03*
D13*
X124950000Y22500000D03*
D12*
X94950000Y19960000D03*
D13*
X94950000Y22500000D03*
D12*
X64950000Y19960000D03*
D13*
X64950000Y22500000D03*
D12*
X34950000Y19960000D03*
D13*
X34950000Y22500000D03*
D12*
X184950000Y49960000D03*
D13*
X184950000Y52500000D03*
D12*
X154950000Y49960000D03*
D13*
X154950000Y52500000D03*
D12*
X124950000Y49960000D03*
D13*
X124950000Y52500000D03*
D12*
X94950000Y49960000D03*
D13*
X94950000Y52500000D03*
D12*
X64950000Y49960000D03*
D13*
X64950000Y52500000D03*
D12*
X34950000Y49960000D03*
D13*
X34950000Y52500000D03*
D12*
X184950000Y79960000D03*
D13*
X184950000Y82500000D03*
D12*
X154950000Y79960000D03*
D13*
X154950000Y82500000D03*
D12*
X124950000Y79960000D03*
D13*
X124950000Y82500000D03*
D12*
X94950000Y79960000D03*
D13*
X94950000Y82500000D03*
D12*
X64950000Y79960000D03*
D13*
X64950000Y82500000D03*
D12*
X34950000Y79960000D03*
D13*
X34950000Y82500000D03*
D12*
X184950000Y109960000D03*
D13*
X184950000Y112500000D03*
D12*
X154950000Y109960000D03*
D13*
X154950000Y112500000D03*
D12*
X124950000Y109960000D03*
D13*
X124950000Y112500000D03*
D12*
X94950000Y109960000D03*
D13*
X94950000Y112500000D03*
D12*
X64950000Y109960000D03*
D13*
X64950000Y112500000D03*
D12*
X34950000Y109960000D03*
D13*
X34950000Y112500000D03*
D12*
X184950000Y139960000D03*
D13*
X184950000Y142500000D03*
D12*
X154950000Y139960000D03*
D13*
X154950000Y142500000D03*
D12*
X124950000Y139960000D03*
D13*
X124950000Y142500000D03*
D12*
X94950000Y139960000D03*
D13*
X94950000Y142500000D03*
D12*
X64950000Y139960000D03*
D13*
X64950000Y142500000D03*
D12*
X34950000Y139960000D03*
D13*
X34950000Y142500000D03*
D12*
X184950000Y169960000D03*
D13*
X184950000Y172500000D03*
D12*
X154950000Y169960000D03*
D13*
X154950000Y172500000D03*
D12*
X124950000Y169960000D03*
D13*
X124950000Y172500000D03*
D12*
X94950000Y169960000D03*
D13*
X94950000Y172500000D03*
D12*
X64950000Y169960000D03*
D13*
X64950000Y172500000D03*
D12*
X199950000Y34960000D03*
D13*
X199950000Y37500000D03*
D12*
X169950000Y34960000D03*
D13*
X169950000Y37500000D03*
D12*
X139950000Y34960000D03*
D13*
X139950000Y37500000D03*
D12*
X109950000Y34960000D03*
D13*
X109950000Y37500000D03*
D12*
X79950000Y34960000D03*
D13*
X79950000Y37500000D03*
D12*
X49950000Y34960000D03*
D13*
X49950000Y37500000D03*
D12*
X199950000Y64960000D03*
D13*
X199950000Y67500000D03*
D12*
X169950000Y64960000D03*
D13*
X169950000Y67500000D03*
D12*
X139950000Y64960000D03*
D13*
X139950000Y67500000D03*
D12*
X109950000Y64960000D03*
D13*
X109950000Y67500000D03*
D12*
X79950000Y64960000D03*
D13*
X79950000Y67500000D03*
D12*
X49950000Y64960000D03*
D13*
X49950000Y67500000D03*
D12*
X199950000Y94960000D03*
D13*
X199950000Y97500000D03*
D12*
X169950000Y94960000D03*
D13*
X169950000Y97500000D03*
D12*
X139950000Y94960000D03*
D13*
X139950000Y97500000D03*
D12*
X109950000Y94960000D03*
D13*
X109950000Y97500000D03*
D12*
X79950000Y94960000D03*
D13*
X79950000Y97500000D03*
D12*
X49950000Y94960000D03*
D13*
X49950000Y97500000D03*
D12*
X199950000Y124960000D03*
D13*
X199950000Y127500000D03*
D12*
X169950000Y124960000D03*
D13*
X169950000Y127500000D03*
D12*
X139950000Y124960000D03*
D13*
X139950000Y127500000D03*
D12*
X109950000Y124960000D03*
D13*
X109950000Y127500000D03*
D12*
X79950000Y124960000D03*
D13*
X79950000Y127500000D03*
D12*
X49950000Y124960000D03*
D13*
X49950000Y127500000D03*
D12*
X199950000Y154960000D03*
D13*
X199950000Y157500000D03*
D12*
X169950000Y154960000D03*
D13*
X169950000Y157500000D03*
D12*
X139950000Y154960000D03*
D13*
X139950000Y157500000D03*
D12*
X109950000Y154960000D03*
D13*
X109950000Y157500000D03*
D12*
X79950000Y154960000D03*
D13*
X79950000Y157500000D03*
D12*
X49950000Y154960000D03*
D13*
X49950000Y157500000D03*
D12*
X199950000Y184960000D03*
D13*
X199950000Y187500000D03*
D12*
X169950000Y184960000D03*
D13*
X169950000Y187500000D03*
D12*
X139950000Y184960000D03*
D13*
X139950000Y187500000D03*
D12*
X109950000Y184960000D03*
D13*
X109950000Y187500000D03*
D12*
X79950000Y184960000D03*
D13*
X79950000Y187500000D03*
D15*
X193950000Y18500000D03*
X189950000Y18500000D03*
X192610000Y18500000D03*
X191290000Y18500000D03*
X192610000Y15500000D03*
X193950000Y15500000D03*
X189950000Y15500000D03*
X191290000Y15500000D03*
X163950000Y18500000D03*
X159950000Y18500000D03*
X162610000Y18500000D03*
X161290000Y18500000D03*
X162610000Y15500000D03*
X163950000Y15500000D03*
X159950000Y15500000D03*
X161290000Y15500000D03*
X133950000Y18500000D03*
X129950000Y18500000D03*
X132610000Y18500000D03*
X131290000Y18500000D03*
X132610000Y15500000D03*
X133950000Y15500000D03*
X129950000Y15500000D03*
X131290000Y15500000D03*
X103950000Y18500000D03*
X99950000Y18500000D03*
X102610000Y18500000D03*
X101290000Y18500000D03*
X102610000Y15500000D03*
X103950000Y15500000D03*
X99950000Y15500000D03*
X101290000Y15500000D03*
X73950000Y18500000D03*
X69950000Y18500000D03*
X72610000Y18500000D03*
X71290000Y18500000D03*
X72610000Y15500000D03*
X73950000Y15500000D03*
X69950000Y15500000D03*
X71290000Y15500000D03*
X43950000Y18500000D03*
X39950000Y18500000D03*
X42610000Y18500000D03*
X41290000Y18500000D03*
X42610000Y15500000D03*
X43950000Y15500000D03*
X39950000Y15500000D03*
X41290000Y15500000D03*
X193950000Y48500000D03*
X189950000Y48500000D03*
X192610000Y48500000D03*
X191290000Y48500000D03*
X192610000Y45500000D03*
X193950000Y45500000D03*
X189950000Y45500000D03*
X191290000Y45500000D03*
X163950000Y48500000D03*
X159950000Y48500000D03*
X162610000Y48500000D03*
X161290000Y48500000D03*
X162610000Y45500000D03*
X163950000Y45500000D03*
X159950000Y45500000D03*
X161290000Y45500000D03*
X133950000Y48500000D03*
X129950000Y48500000D03*
X132610000Y48500000D03*
X131290000Y48500000D03*
X132610000Y45500000D03*
X133950000Y45500000D03*
X129950000Y45500000D03*
X131290000Y45500000D03*
X103950000Y48500000D03*
X99950000Y48500000D03*
X102610000Y48500000D03*
X101290000Y48500000D03*
X102610000Y45500000D03*
X103950000Y45500000D03*
X99950000Y45500000D03*
X101290000Y45500000D03*
X73950000Y48500000D03*
X69950000Y48500000D03*
X72610000Y48500000D03*
X71290000Y48500000D03*
X72610000Y45500000D03*
X73950000Y45500000D03*
X69950000Y45500000D03*
X71290000Y45500000D03*
X43950000Y48500000D03*
X39950000Y48500000D03*
X42610000Y48500000D03*
X41290000Y48500000D03*
X42610000Y45500000D03*
X43950000Y45500000D03*
X39950000Y45500000D03*
X41290000Y45500000D03*
X193950000Y78500000D03*
X189950000Y78500000D03*
X192610000Y78500000D03*
X191290000Y78500000D03*
X192610000Y75500000D03*
X193950000Y75500000D03*
X189950000Y75500000D03*
X191290000Y75500000D03*
X163950000Y78500000D03*
X159950000Y78500000D03*
X162610000Y78500000D03*
X161290000Y78500000D03*
X162610000Y75500000D03*
X163950000Y75500000D03*
X159950000Y75500000D03*
X161290000Y75500000D03*
X133950000Y78500000D03*
X129950000Y78500000D03*
X132610000Y78500000D03*
X131290000Y78500000D03*
X132610000Y75500000D03*
X133950000Y75500000D03*
X129950000Y75500000D03*
X131290000Y75500000D03*
X103950000Y78500000D03*
X99950000Y78500000D03*
X102610000Y78500000D03*
X101290000Y78500000D03*
X102610000Y75500000D03*
X103950000Y75500000D03*
X99950000Y75500000D03*
X101290000Y75500000D03*
X73950000Y78500000D03*
X69950000Y78500000D03*
X72610000Y78500000D03*
X71290000Y78500000D03*
X72610000Y75500000D03*
X73950000Y75500000D03*
X69950000Y75500000D03*
X71290000Y75500000D03*
X43950000Y78500000D03*
X39950000Y78500000D03*
X42610000Y78500000D03*
X41290000Y78500000D03*
X42610000Y75500000D03*
X43950000Y75500000D03*
X39950000Y75500000D03*
X41290000Y75500000D03*
X193950000Y108500000D03*
X189950000Y108500000D03*
X192610000Y108500000D03*
X191290000Y108500000D03*
X192610000Y105500000D03*
X193950000Y105500000D03*
X189950000Y105500000D03*
X191290000Y105500000D03*
X163950000Y108500000D03*
X159950000Y108500000D03*
X162610000Y108500000D03*
X161290000Y108500000D03*
X162610000Y105500000D03*
X163950000Y105500000D03*
X159950000Y105500000D03*
X161290000Y105500000D03*
X133950000Y108500000D03*
X129950000Y108500000D03*
X132610000Y108500000D03*
X131290000Y108500000D03*
X132610000Y105500000D03*
X133950000Y105500000D03*
X129950000Y105500000D03*
X131290000Y105500000D03*
X103950000Y108500000D03*
X99950000Y108500000D03*
X102610000Y108500000D03*
X101290000Y108500000D03*
X102610000Y105500000D03*
X103950000Y105500000D03*
X99950000Y105500000D03*
X101290000Y105500000D03*
X73950000Y108500000D03*
X69950000Y108500000D03*
X72610000Y108500000D03*
X71290000Y108500000D03*
X72610000Y105500000D03*
X73950000Y105500000D03*
X69950000Y105500000D03*
X71290000Y105500000D03*
X43950000Y108500000D03*
X39950000Y108500000D03*
X42610000Y108500000D03*
X41290000Y108500000D03*
X42610000Y105500000D03*
X43950000Y105500000D03*
X39950000Y105500000D03*
X41290000Y105500000D03*
X193950000Y138500000D03*
X189950000Y138500000D03*
X192610000Y138500000D03*
X191290000Y138500000D03*
X192610000Y135500000D03*
X193950000Y135500000D03*
X189950000Y135500000D03*
X191290000Y135500000D03*
X163950000Y138500000D03*
X159950000Y138500000D03*
X162610000Y138500000D03*
X161290000Y138500000D03*
X162610000Y135500000D03*
X163950000Y135500000D03*
X159950000Y135500000D03*
X161290000Y135500000D03*
X133950000Y138500000D03*
X129950000Y138500000D03*
X132610000Y138500000D03*
X131290000Y138500000D03*
X132610000Y135500000D03*
X133950000Y135500000D03*
X129950000Y135500000D03*
X131290000Y135500000D03*
X103950000Y138500000D03*
X99950000Y138500000D03*
X102610000Y138500000D03*
X101290000Y138500000D03*
X102610000Y135500000D03*
X103950000Y135500000D03*
X99950000Y135500000D03*
X101290000Y135500000D03*
X73950000Y138500000D03*
X69950000Y138500000D03*
X72610000Y138500000D03*
X71290000Y138500000D03*
X72610000Y135500000D03*
X73950000Y135500000D03*
X69950000Y135500000D03*
X71290000Y135500000D03*
X43950000Y138500000D03*
X39950000Y138500000D03*
X42610000Y138500000D03*
X41290000Y138500000D03*
X42610000Y135500000D03*
X43950000Y135500000D03*
X39950000Y135500000D03*
X41290000Y135500000D03*
X193950000Y168500000D03*
X189950000Y168500000D03*
X192610000Y168500000D03*
X191290000Y168500000D03*
X192610000Y165500000D03*
X193950000Y165500000D03*
X189950000Y165500000D03*
X191290000Y165500000D03*
X163950000Y168500000D03*
X159950000Y168500000D03*
X162610000Y168500000D03*
X161290000Y168500000D03*
X162610000Y165500000D03*
X163950000Y165500000D03*
X159950000Y165500000D03*
X161290000Y165500000D03*
X133950000Y168500000D03*
X129950000Y168500000D03*
X132610000Y168500000D03*
X131290000Y168500000D03*
X132610000Y165500000D03*
X133950000Y165500000D03*
X129950000Y165500000D03*
X131290000Y165500000D03*
X103950000Y168500000D03*
X99950000Y168500000D03*
X102610000Y168500000D03*
X101290000Y168500000D03*
X102610000Y165500000D03*
X103950000Y165500000D03*
X99950000Y165500000D03*
X101290000Y165500000D03*
X73950000Y168500000D03*
X69950000Y168500000D03*
X72610000Y168500000D03*
X71290000Y168500000D03*
X72610000Y165500000D03*
X73950000Y165500000D03*
X69950000Y165500000D03*
X71290000Y165500000D03*
D19*
X197750000Y25500000D03*
X199750000Y25500000D03*
X167750000Y25500000D03*
X169750000Y25500000D03*
X137750000Y25500000D03*
X139750000Y25500000D03*
X107750000Y25500000D03*
X109750000Y25500000D03*
X77750000Y25500000D03*
X79750000Y25500000D03*
X47750000Y25500000D03*
X49750000Y25500000D03*
X197750000Y55500000D03*
X199750000Y55500000D03*
X167750000Y55500000D03*
X169750000Y55500000D03*
X137750000Y55500000D03*
X139750000Y55500000D03*
X107750000Y55500000D03*
X109750000Y55500000D03*
X77750000Y55500000D03*
X79750000Y55500000D03*
X47750000Y55500000D03*
X49750000Y55500000D03*
X197750000Y85500000D03*
X199750000Y85500000D03*
X167750000Y85500000D03*
X169750000Y85500000D03*
X137750000Y85500000D03*
X139750000Y85500000D03*
X107750000Y85500000D03*
X109750000Y85500000D03*
X77750000Y85500000D03*
X79750000Y85500000D03*
X47750000Y85500000D03*
X49750000Y85500000D03*
X197750000Y115500000D03*
X199750000Y115500000D03*
X167750000Y115500000D03*
X169750000Y115500000D03*
X137750000Y115500000D03*
X139750000Y115500000D03*
X107750000Y115500000D03*
X109750000Y115500000D03*
X77750000Y115500000D03*
X79750000Y115500000D03*
X47750000Y115500000D03*
X49750000Y115500000D03*
X197750000Y145500000D03*
X199750000Y145500000D03*
X167750000Y145500000D03*
X169750000Y145500000D03*
X137750000Y145500000D03*
X139750000Y145500000D03*
X107750000Y145500000D03*
X109750000Y145500000D03*
X77750000Y145500000D03*
X79750000Y145500000D03*
X47750000Y145500000D03*
X49750000Y145500000D03*
X197750000Y175500000D03*
X199750000Y175500000D03*
X167750000Y175500000D03*
X169750000Y175500000D03*
X137750000Y175500000D03*
X139750000Y175500000D03*
X107750000Y175500000D03*
X109750000Y175500000D03*
X77750000Y175500000D03*
X79750000Y175500000D03*
D15*
X185450000Y27500000D03*
X185450000Y31500000D03*
X185450000Y28840000D03*
X185450000Y30160000D03*
X182450000Y28840000D03*
X182450000Y27500000D03*
X182450000Y31500000D03*
X182450000Y30160000D03*
X155450000Y27500000D03*
X155450000Y31500000D03*
X155450000Y28840000D03*
X155450000Y30160000D03*
X152450000Y28840000D03*
X152450000Y27500000D03*
X152450000Y31500000D03*
X152450000Y30160000D03*
X125450000Y27500000D03*
X125450000Y31500000D03*
X125450000Y28840000D03*
X125450000Y30160000D03*
X122450000Y28840000D03*
X122450000Y27500000D03*
X122450000Y31500000D03*
X122450000Y30160000D03*
X95450000Y27500000D03*
X95450000Y31500000D03*
X95450000Y28840000D03*
X95450000Y30160000D03*
X92450000Y28840000D03*
X92450000Y27500000D03*
X92450000Y31500000D03*
X92450000Y30160000D03*
X65450000Y27500000D03*
X65450000Y31500000D03*
X65450000Y28840000D03*
X65450000Y30160000D03*
X62450000Y28840000D03*
X62450000Y27500000D03*
X62450000Y31500000D03*
X62450000Y30160000D03*
X35450000Y27500000D03*
X35450000Y31500000D03*
X35450000Y28840000D03*
X35450000Y30160000D03*
X32450000Y28840000D03*
X32450000Y27500000D03*
X32450000Y31500000D03*
X32450000Y30160000D03*
X185450000Y57500000D03*
X185450000Y61500000D03*
X185450000Y58840000D03*
X185450000Y60160000D03*
X182450000Y58840000D03*
X182450000Y57500000D03*
X182450000Y61500000D03*
X182450000Y60160000D03*
X155450000Y57500000D03*
X155450000Y61500000D03*
X155450000Y58840000D03*
X155450000Y60160000D03*
X152450000Y58840000D03*
X152450000Y57500000D03*
X152450000Y61500000D03*
X152450000Y60160000D03*
X125450000Y57500000D03*
X125450000Y61500000D03*
X125450000Y58840000D03*
X125450000Y60160000D03*
X122450000Y58840000D03*
X122450000Y57500000D03*
X122450000Y61500000D03*
X122450000Y60160000D03*
X95450000Y57500000D03*
X95450000Y61500000D03*
X95450000Y58840000D03*
X95450000Y60160000D03*
X92450000Y58840000D03*
X92450000Y57500000D03*
X92450000Y61500000D03*
X92450000Y60160000D03*
X65450000Y57500000D03*
X65450000Y61500000D03*
X65450000Y58840000D03*
X65450000Y60160000D03*
X62450000Y58840000D03*
X62450000Y57500000D03*
X62450000Y61500000D03*
X62450000Y60160000D03*
X35450000Y57500000D03*
X35450000Y61500000D03*
X35450000Y58840000D03*
X35450000Y60160000D03*
X32450000Y58840000D03*
X32450000Y57500000D03*
X32450000Y61500000D03*
X32450000Y60160000D03*
X185450000Y87500000D03*
X185450000Y91500000D03*
X185450000Y88840000D03*
X185450000Y90160000D03*
X182450000Y88840000D03*
X182450000Y87500000D03*
X182450000Y91500000D03*
X182450000Y90160000D03*
X155450000Y87500000D03*
X155450000Y91500000D03*
X155450000Y88840000D03*
X155450000Y90160000D03*
X152450000Y88840000D03*
X152450000Y87500000D03*
X152450000Y91500000D03*
X152450000Y90160000D03*
X125450000Y87500000D03*
X125450000Y91500000D03*
X125450000Y88840000D03*
X125450000Y90160000D03*
X122450000Y88840000D03*
X122450000Y87500000D03*
X122450000Y91500000D03*
X122450000Y90160000D03*
X95450000Y87500000D03*
X95450000Y91500000D03*
X95450000Y88840000D03*
X95450000Y90160000D03*
X92450000Y88840000D03*
X92450000Y87500000D03*
X92450000Y91500000D03*
X92450000Y90160000D03*
X65450000Y87500000D03*
X65450000Y91500000D03*
X65450000Y88840000D03*
X65450000Y90160000D03*
X62450000Y88840000D03*
X62450000Y87500000D03*
X62450000Y91500000D03*
X62450000Y90160000D03*
X35450000Y87500000D03*
X35450000Y91500000D03*
X35450000Y88840000D03*
X35450000Y90160000D03*
X32450000Y88840000D03*
X32450000Y87500000D03*
X32450000Y91500000D03*
X32450000Y90160000D03*
X185450000Y117500000D03*
X185450000Y121500000D03*
X185450000Y118840000D03*
X185450000Y120160000D03*
X182450000Y118840000D03*
X182450000Y117500000D03*
X182450000Y121500000D03*
X182450000Y120160000D03*
X155450000Y117500000D03*
X155450000Y121500000D03*
X155450000Y118840000D03*
X155450000Y120160000D03*
X152450000Y118840000D03*
X152450000Y117500000D03*
X152450000Y121500000D03*
X152450000Y120160000D03*
X125450000Y117500000D03*
X125450000Y121500000D03*
X125450000Y118840000D03*
X125450000Y120160000D03*
X122450000Y118840000D03*
X122450000Y117500000D03*
X122450000Y121500000D03*
X122450000Y120160000D03*
X95450000Y117500000D03*
X95450000Y121500000D03*
X95450000Y118840000D03*
X95450000Y120160000D03*
X92450000Y118840000D03*
X92450000Y117500000D03*
X92450000Y121500000D03*
X92450000Y120160000D03*
X65450000Y117500000D03*
X65450000Y121500000D03*
X65450000Y118840000D03*
X65450000Y120160000D03*
X62450000Y118840000D03*
X62450000Y117500000D03*
X62450000Y121500000D03*
X62450000Y120160000D03*
X35450000Y117500000D03*
X35450000Y121500000D03*
X35450000Y118840000D03*
X35450000Y120160000D03*
X32450000Y118840000D03*
X32450000Y117500000D03*
X32450000Y121500000D03*
X32450000Y120160000D03*
X185450000Y147500000D03*
X185450000Y151500000D03*
X185450000Y148840000D03*
X185450000Y150160000D03*
X182450000Y148840000D03*
X182450000Y147500000D03*
X182450000Y151500000D03*
X182450000Y150160000D03*
X155450000Y147500000D03*
X155450000Y151500000D03*
X155450000Y148840000D03*
X155450000Y150160000D03*
X152450000Y148840000D03*
X152450000Y147500000D03*
X152450000Y151500000D03*
X152450000Y150160000D03*
X125450000Y147500000D03*
X125450000Y151500000D03*
X125450000Y148840000D03*
X125450000Y150160000D03*
X122450000Y148840000D03*
X122450000Y147500000D03*
X122450000Y151500000D03*
X122450000Y150160000D03*
X95450000Y147500000D03*
X95450000Y151500000D03*
X95450000Y148840000D03*
X95450000Y150160000D03*
X92450000Y148840000D03*
X92450000Y147500000D03*
X92450000Y151500000D03*
X92450000Y150160000D03*
X65450000Y147500000D03*
X65450000Y151500000D03*
X65450000Y148840000D03*
X65450000Y150160000D03*
X62450000Y148840000D03*
X62450000Y147500000D03*
X62450000Y151500000D03*
X62450000Y150160000D03*
X35450000Y147500000D03*
X35450000Y151500000D03*
X35450000Y148840000D03*
X35450000Y150160000D03*
X32450000Y148840000D03*
X32450000Y147500000D03*
X32450000Y151500000D03*
X32450000Y150160000D03*
X185450000Y177500000D03*
X185450000Y181500000D03*
X185450000Y178840000D03*
X185450000Y180160000D03*
X182450000Y178840000D03*
X182450000Y177500000D03*
X182450000Y181500000D03*
X182450000Y180160000D03*
X155450000Y177500000D03*
X155450000Y181500000D03*
X155450000Y178840000D03*
X155450000Y180160000D03*
X152450000Y178840000D03*
X152450000Y177500000D03*
X152450000Y181500000D03*
X152450000Y180160000D03*
X125450000Y177500000D03*
X125450000Y181500000D03*
X125450000Y178840000D03*
X125450000Y180160000D03*
X122450000Y178840000D03*
X122450000Y177500000D03*
X122450000Y181500000D03*
X122450000Y180160000D03*
X95450000Y177500000D03*
X95450000Y181500000D03*
X95450000Y178840000D03*
X95450000Y180160000D03*
X92450000Y178840000D03*
X92450000Y177500000D03*
X92450000Y181500000D03*
X92450000Y180160000D03*
X65450000Y177500000D03*
X65450000Y181500000D03*
X65450000Y178840000D03*
X65450000Y180160000D03*
X62450000Y178840000D03*
X62450000Y177500000D03*
X62450000Y181500000D03*
X62450000Y180160000D03*
D16*
X194650000Y20690000D03*
X194650000Y21960000D03*
X194650000Y23230000D03*
X194650000Y24500000D03*
X194650000Y25770000D03*
X194650000Y27040000D03*
X194650000Y28310000D03*
X189250000Y28310000D03*
X189250000Y27040000D03*
X189250000Y25770000D03*
X189250000Y24500000D03*
X189250000Y23230000D03*
X189250000Y21960000D03*
X189250000Y20690000D03*
X164650000Y20690000D03*
X164650000Y21960000D03*
X164650000Y23230000D03*
X164650000Y24500000D03*
X164650000Y25770000D03*
X164650000Y27040000D03*
X164650000Y28310000D03*
X159250000Y28310000D03*
X159250000Y27040000D03*
X159250000Y25770000D03*
X159250000Y24500000D03*
X159250000Y23230000D03*
X159250000Y21960000D03*
X159250000Y20690000D03*
X134650000Y20690000D03*
X134650000Y21960000D03*
X134650000Y23230000D03*
X134650000Y24500000D03*
X134650000Y25770000D03*
X134650000Y27040000D03*
X134650000Y28310000D03*
X129250000Y28310000D03*
X129250000Y27040000D03*
X129250000Y25770000D03*
X129250000Y24500000D03*
X129250000Y23230000D03*
X129250000Y21960000D03*
X129250000Y20690000D03*
X104650000Y20690000D03*
X104650000Y21960000D03*
X104650000Y23230000D03*
X104650000Y24500000D03*
X104650000Y25770000D03*
X104650000Y27040000D03*
X104650000Y28310000D03*
X99250000Y28310000D03*
X99250000Y27040000D03*
X99250000Y25770000D03*
X99250000Y24500000D03*
X99250000Y23230000D03*
X99250000Y21960000D03*
X99250000Y20690000D03*
X74650000Y20690000D03*
X74650000Y21960000D03*
X74650000Y23230000D03*
X74650000Y24500000D03*
X74650000Y25770000D03*
X74650000Y27040000D03*
X74650000Y28310000D03*
X69250000Y28310000D03*
X69250000Y27040000D03*
X69250000Y25770000D03*
X69250000Y24500000D03*
X69250000Y23230000D03*
X69250000Y21960000D03*
X69250000Y20690000D03*
X44650000Y20690000D03*
X44650000Y21960000D03*
X44650000Y23230000D03*
X44650000Y24500000D03*
X44650000Y25770000D03*
X44650000Y27040000D03*
X44650000Y28310000D03*
X39250000Y28310000D03*
X39250000Y27040000D03*
X39250000Y25770000D03*
X39250000Y24500000D03*
X39250000Y23230000D03*
X39250000Y21960000D03*
X39250000Y20690000D03*
X194650000Y50690000D03*
X194650000Y51960000D03*
X194650000Y53230000D03*
X194650000Y54500000D03*
X194650000Y55770000D03*
X194650000Y57040000D03*
X194650000Y58310000D03*
X189250000Y58310000D03*
X189250000Y57040000D03*
X189250000Y55770000D03*
X189250000Y54500000D03*
X189250000Y53230000D03*
X189250000Y51960000D03*
X189250000Y50690000D03*
X164650000Y50690000D03*
X164650000Y51960000D03*
X164650000Y53230000D03*
X164650000Y54500000D03*
X164650000Y55770000D03*
X164650000Y57040000D03*
X164650000Y58310000D03*
X159250000Y58310000D03*
X159250000Y57040000D03*
X159250000Y55770000D03*
X159250000Y54500000D03*
X159250000Y53230000D03*
X159250000Y51960000D03*
X159250000Y50690000D03*
X134650000Y50690000D03*
X134650000Y51960000D03*
X134650000Y53230000D03*
X134650000Y54500000D03*
X134650000Y55770000D03*
X134650000Y57040000D03*
X134650000Y58310000D03*
X129250000Y58310000D03*
X129250000Y57040000D03*
X129250000Y55770000D03*
X129250000Y54500000D03*
X129250000Y53230000D03*
X129250000Y51960000D03*
X129250000Y50690000D03*
X104650000Y50690000D03*
X104650000Y51960000D03*
X104650000Y53230000D03*
X104650000Y54500000D03*
X104650000Y55770000D03*
X104650000Y57040000D03*
X104650000Y58310000D03*
X99250000Y58310000D03*
X99250000Y57040000D03*
X99250000Y55770000D03*
X99250000Y54500000D03*
X99250000Y53230000D03*
X99250000Y51960000D03*
X99250000Y50690000D03*
X74650000Y50690000D03*
X74650000Y51960000D03*
X74650000Y53230000D03*
X74650000Y54500000D03*
X74650000Y55770000D03*
X74650000Y57040000D03*
X74650000Y58310000D03*
X69250000Y58310000D03*
X69250000Y57040000D03*
X69250000Y55770000D03*
X69250000Y54500000D03*
X69250000Y53230000D03*
X69250000Y51960000D03*
X69250000Y50690000D03*
X44650000Y50690000D03*
X44650000Y51960000D03*
X44650000Y53230000D03*
X44650000Y54500000D03*
X44650000Y55770000D03*
X44650000Y57040000D03*
X44650000Y58310000D03*
X39250000Y58310000D03*
X39250000Y57040000D03*
X39250000Y55770000D03*
X39250000Y54500000D03*
X39250000Y53230000D03*
X39250000Y51960000D03*
X39250000Y50690000D03*
X194650000Y80690000D03*
X194650000Y81960000D03*
X194650000Y83230000D03*
X194650000Y84500000D03*
X194650000Y85770000D03*
X194650000Y87040000D03*
X194650000Y88310000D03*
X189250000Y88310000D03*
X189250000Y87040000D03*
X189250000Y85770000D03*
X189250000Y84500000D03*
X189250000Y83230000D03*
X189250000Y81960000D03*
X189250000Y80690000D03*
X164650000Y80690000D03*
X164650000Y81960000D03*
X164650000Y83230000D03*
X164650000Y84500000D03*
X164650000Y85770000D03*
X164650000Y87040000D03*
X164650000Y88310000D03*
X159250000Y88310000D03*
X159250000Y87040000D03*
X159250000Y85770000D03*
X159250000Y84500000D03*
X159250000Y83230000D03*
X159250000Y81960000D03*
X159250000Y80690000D03*
X134650000Y80690000D03*
X134650000Y81960000D03*
X134650000Y83230000D03*
X134650000Y84500000D03*
X134650000Y85770000D03*
X134650000Y87040000D03*
X134650000Y88310000D03*
X129250000Y88310000D03*
X129250000Y87040000D03*
X129250000Y85770000D03*
X129250000Y84500000D03*
X129250000Y83230000D03*
X129250000Y81960000D03*
X129250000Y80690000D03*
X104650000Y80690000D03*
X104650000Y81960000D03*
X104650000Y83230000D03*
X104650000Y84500000D03*
X104650000Y85770000D03*
X104650000Y87040000D03*
X104650000Y88310000D03*
X99250000Y88310000D03*
X99250000Y87040000D03*
X99250000Y85770000D03*
X99250000Y84500000D03*
X99250000Y83230000D03*
X99250000Y81960000D03*
X99250000Y80690000D03*
X74650000Y80690000D03*
X74650000Y81960000D03*
X74650000Y83230000D03*
X74650000Y84500000D03*
X74650000Y85770000D03*
X74650000Y87040000D03*
X74650000Y88310000D03*
X69250000Y88310000D03*
X69250000Y87040000D03*
X69250000Y85770000D03*
X69250000Y84500000D03*
X69250000Y83230000D03*
X69250000Y81960000D03*
X69250000Y80690000D03*
X44650000Y80690000D03*
X44650000Y81960000D03*
X44650000Y83230000D03*
X44650000Y84500000D03*
X44650000Y85770000D03*
X44650000Y87040000D03*
X44650000Y88310000D03*
X39250000Y88310000D03*
X39250000Y87040000D03*
X39250000Y85770000D03*
X39250000Y84500000D03*
X39250000Y83230000D03*
X39250000Y81960000D03*
X39250000Y80690000D03*
X194650000Y110690000D03*
X194650000Y111960000D03*
X194650000Y113230000D03*
X194650000Y114500000D03*
X194650000Y115770000D03*
X194650000Y117040000D03*
X194650000Y118310000D03*
X189250000Y118310000D03*
X189250000Y117040000D03*
X189250000Y115770000D03*
X189250000Y114500000D03*
X189250000Y113230000D03*
X189250000Y111960000D03*
X189250000Y110690000D03*
X164650000Y110690000D03*
X164650000Y111960000D03*
X164650000Y113230000D03*
X164650000Y114500000D03*
X164650000Y115770000D03*
X164650000Y117040000D03*
X164650000Y118310000D03*
X159250000Y118310000D03*
X159250000Y117040000D03*
X159250000Y115770000D03*
X159250000Y114500000D03*
X159250000Y113230000D03*
X159250000Y111960000D03*
X159250000Y110690000D03*
X134650000Y110690000D03*
X134650000Y111960000D03*
X134650000Y113230000D03*
X134650000Y114500000D03*
X134650000Y115770000D03*
X134650000Y117040000D03*
X134650000Y118310000D03*
X129250000Y118310000D03*
X129250000Y117040000D03*
X129250000Y115770000D03*
X129250000Y114500000D03*
X129250000Y113230000D03*
X129250000Y111960000D03*
X129250000Y110690000D03*
X104650000Y110690000D03*
X104650000Y111960000D03*
X104650000Y113230000D03*
X104650000Y114500000D03*
X104650000Y115770000D03*
X104650000Y117040000D03*
X104650000Y118310000D03*
X99250000Y118310000D03*
X99250000Y117040000D03*
X99250000Y115770000D03*
X99250000Y114500000D03*
X99250000Y113230000D03*
X99250000Y111960000D03*
X99250000Y110690000D03*
X74650000Y110690000D03*
X74650000Y111960000D03*
X74650000Y113230000D03*
X74650000Y114500000D03*
X74650000Y115770000D03*
X74650000Y117040000D03*
X74650000Y118310000D03*
X69250000Y118310000D03*
X69250000Y117040000D03*
X69250000Y115770000D03*
X69250000Y114500000D03*
X69250000Y113230000D03*
X69250000Y111960000D03*
X69250000Y110690000D03*
X44650000Y110690000D03*
X44650000Y111960000D03*
X44650000Y113230000D03*
X44650000Y114500000D03*
X44650000Y115770000D03*
X44650000Y117040000D03*
X44650000Y118310000D03*
X39250000Y118310000D03*
X39250000Y117040000D03*
X39250000Y115770000D03*
X39250000Y114500000D03*
X39250000Y113230000D03*
X39250000Y111960000D03*
X39250000Y110690000D03*
X194650000Y140690000D03*
X194650000Y141960000D03*
X194650000Y143230000D03*
X194650000Y144500000D03*
X194650000Y145770000D03*
X194650000Y147040000D03*
X194650000Y148310000D03*
X189250000Y148310000D03*
X189250000Y147040000D03*
X189250000Y145770000D03*
X189250000Y144500000D03*
X189250000Y143230000D03*
X189250000Y141960000D03*
X189250000Y140690000D03*
X164650000Y140690000D03*
X164650000Y141960000D03*
X164650000Y143230000D03*
X164650000Y144500000D03*
X164650000Y145770000D03*
X164650000Y147040000D03*
X164650000Y148310000D03*
X159250000Y148310000D03*
X159250000Y147040000D03*
X159250000Y145770000D03*
X159250000Y144500000D03*
X159250000Y143230000D03*
X159250000Y141960000D03*
X159250000Y140690000D03*
X134650000Y140690000D03*
X134650000Y141960000D03*
X134650000Y143230000D03*
X134650000Y144500000D03*
X134650000Y145770000D03*
X134650000Y147040000D03*
X134650000Y148310000D03*
X129250000Y148310000D03*
X129250000Y147040000D03*
X129250000Y145770000D03*
X129250000Y144500000D03*
X129250000Y143230000D03*
X129250000Y141960000D03*
X129250000Y140690000D03*
X104650000Y140690000D03*
X104650000Y141960000D03*
X104650000Y143230000D03*
X104650000Y144500000D03*
X104650000Y145770000D03*
X104650000Y147040000D03*
X104650000Y148310000D03*
X99250000Y148310000D03*
X99250000Y147040000D03*
X99250000Y145770000D03*
X99250000Y144500000D03*
X99250000Y143230000D03*
X99250000Y141960000D03*
X99250000Y140690000D03*
X74650000Y140690000D03*
X74650000Y141960000D03*
X74650000Y143230000D03*
X74650000Y144500000D03*
X74650000Y145770000D03*
X74650000Y147040000D03*
X74650000Y148310000D03*
X69250000Y148310000D03*
X69250000Y147040000D03*
X69250000Y145770000D03*
X69250000Y144500000D03*
X69250000Y143230000D03*
X69250000Y141960000D03*
X69250000Y140690000D03*
X44650000Y140690000D03*
X44650000Y141960000D03*
X44650000Y143230000D03*
X44650000Y144500000D03*
X44650000Y145770000D03*
X44650000Y147040000D03*
X44650000Y148310000D03*
X39250000Y148310000D03*
X39250000Y147040000D03*
X39250000Y145770000D03*
X39250000Y144500000D03*
X39250000Y143230000D03*
X39250000Y141960000D03*
X39250000Y140690000D03*
X194650000Y170690000D03*
X194650000Y171960000D03*
X194650000Y173230000D03*
X194650000Y174500000D03*
X194650000Y175770000D03*
X194650000Y177040000D03*
X194650000Y178310000D03*
X189250000Y178310000D03*
X189250000Y177040000D03*
X189250000Y175770000D03*
X189250000Y174500000D03*
X189250000Y173230000D03*
X189250000Y171960000D03*
X189250000Y170690000D03*
X164650000Y170690000D03*
X164650000Y171960000D03*
X164650000Y173230000D03*
X164650000Y174500000D03*
X164650000Y175770000D03*
X164650000Y177040000D03*
X164650000Y178310000D03*
X159250000Y178310000D03*
X159250000Y177040000D03*
X159250000Y175770000D03*
X159250000Y174500000D03*
X159250000Y173230000D03*
X159250000Y171960000D03*
X159250000Y170690000D03*
X134650000Y170690000D03*
X134650000Y171960000D03*
X134650000Y173230000D03*
X134650000Y174500000D03*
X134650000Y175770000D03*
X134650000Y177040000D03*
X134650000Y178310000D03*
X129250000Y178310000D03*
X129250000Y177040000D03*
X129250000Y175770000D03*
X129250000Y174500000D03*
X129250000Y173230000D03*
X129250000Y171960000D03*
X129250000Y170690000D03*
X104650000Y170690000D03*
X104650000Y171960000D03*
X104650000Y173230000D03*
X104650000Y174500000D03*
X104650000Y175770000D03*
X104650000Y177040000D03*
X104650000Y178310000D03*
X99250000Y178310000D03*
X99250000Y177040000D03*
X99250000Y175770000D03*
X99250000Y174500000D03*
X99250000Y173230000D03*
X99250000Y171960000D03*
X99250000Y170690000D03*
X74650000Y170690000D03*
X74650000Y171960000D03*
X74650000Y173230000D03*
X74650000Y174500000D03*
X74650000Y175770000D03*
X74650000Y177040000D03*
X74650000Y178310000D03*
X69250000Y178310000D03*
X69250000Y177040000D03*
X69250000Y175770000D03*
X69250000Y174500000D03*
X69250000Y173230000D03*
X69250000Y171960000D03*
X69250000Y170690000D03*
D21*
X196200000Y31150000D03*
X198100000Y31150000D03*
X196200000Y30500000D03*
X198100000Y30500000D03*
X196200000Y29850000D03*
X198100000Y29850000D03*
X166200000Y31150000D03*
X168100000Y31150000D03*
X166200000Y30500000D03*
X168100000Y30500000D03*
X166200000Y29850000D03*
X168100000Y29850000D03*
X136200000Y31150000D03*
X138100000Y31150000D03*
X136200000Y30500000D03*
X138100000Y30500000D03*
X136200000Y29850000D03*
X138100000Y29850000D03*
X106200000Y31150000D03*
X108100000Y31150000D03*
X106200000Y30500000D03*
X108100000Y30500000D03*
X106200000Y29850000D03*
X108100000Y29850000D03*
X76200000Y31150000D03*
X78100000Y31150000D03*
X76200000Y30500000D03*
X78100000Y30500000D03*
X76200000Y29850000D03*
X78100000Y29850000D03*
X46200000Y31150000D03*
X48100000Y31150000D03*
X46200000Y30500000D03*
X48100000Y30500000D03*
X46200000Y29850000D03*
X48100000Y29850000D03*
X196200000Y61150000D03*
X198100000Y61150000D03*
X196200000Y60500000D03*
X198100000Y60500000D03*
X196200000Y59850000D03*
X198100000Y59850000D03*
X166200000Y61150000D03*
X168100000Y61150000D03*
X166200000Y60500000D03*
X168100000Y60500000D03*
X166200000Y59850000D03*
X168100000Y59850000D03*
X136200000Y61150000D03*
X138100000Y61150000D03*
X136200000Y60500000D03*
X138100000Y60500000D03*
X136200000Y59850000D03*
X138100000Y59850000D03*
X106200000Y61150000D03*
X108100000Y61150000D03*
X106200000Y60500000D03*
X108100000Y60500000D03*
X106200000Y59850000D03*
X108100000Y59850000D03*
X76200000Y61150000D03*
X78100000Y61150000D03*
X76200000Y60500000D03*
X78100000Y60500000D03*
X76200000Y59850000D03*
X78100000Y59850000D03*
X46200000Y61150000D03*
X48100000Y61150000D03*
X46200000Y60500000D03*
X48100000Y60500000D03*
X46200000Y59850000D03*
X48100000Y59850000D03*
X196200000Y91150000D03*
X198100000Y91150000D03*
X196200000Y90500000D03*
X198100000Y90500000D03*
X196200000Y89850000D03*
X198100000Y89850000D03*
X166200000Y91150000D03*
X168100000Y91150000D03*
X166200000Y90500000D03*
X168100000Y90500000D03*
X166200000Y89850000D03*
X168100000Y89850000D03*
X136200000Y91150000D03*
X138100000Y91150000D03*
X136200000Y90500000D03*
X138100000Y90500000D03*
X136200000Y89850000D03*
X138100000Y89850000D03*
X106200000Y91150000D03*
X108100000Y91150000D03*
X106200000Y90500000D03*
X108100000Y90500000D03*
X106200000Y89850000D03*
X108100000Y89850000D03*
X76200000Y91150000D03*
X78100000Y91150000D03*
X76200000Y90500000D03*
X78100000Y90500000D03*
X76200000Y89850000D03*
X78100000Y89850000D03*
X46200000Y91150000D03*
X48100000Y91150000D03*
X46200000Y90500000D03*
X48100000Y90500000D03*
X46200000Y89850000D03*
X48100000Y89850000D03*
X196200000Y121150000D03*
X198100000Y121150000D03*
X196200000Y120500000D03*
X198100000Y120500000D03*
X196200000Y119850000D03*
X198100000Y119850000D03*
X166200000Y121150000D03*
X168100000Y121150000D03*
X166200000Y120500000D03*
X168100000Y120500000D03*
X166200000Y119850000D03*
X168100000Y119850000D03*
X136200000Y121150000D03*
X138100000Y121150000D03*
X136200000Y120500000D03*
X138100000Y120500000D03*
X136200000Y119850000D03*
X138100000Y119850000D03*
X106200000Y121150000D03*
X108100000Y121150000D03*
X106200000Y120500000D03*
X108100000Y120500000D03*
X106200000Y119850000D03*
X108100000Y119850000D03*
X76200000Y121150000D03*
X78100000Y121150000D03*
X76200000Y120500000D03*
X78100000Y120500000D03*
X76200000Y119850000D03*
X78100000Y119850000D03*
X46200000Y121150000D03*
X48100000Y121150000D03*
X46200000Y120500000D03*
X48100000Y120500000D03*
X46200000Y119850000D03*
X48100000Y119850000D03*
X196200000Y151150000D03*
X198100000Y151150000D03*
X196200000Y150500000D03*
X198100000Y150500000D03*
X196200000Y149850000D03*
X198100000Y149850000D03*
X166200000Y151150000D03*
X168100000Y151150000D03*
X166200000Y150500000D03*
X168100000Y150500000D03*
X166200000Y149850000D03*
X168100000Y149850000D03*
X136200000Y151150000D03*
X138100000Y151150000D03*
X136200000Y150500000D03*
X138100000Y150500000D03*
X136200000Y149850000D03*
X138100000Y149850000D03*
X106200000Y151150000D03*
X108100000Y151150000D03*
X106200000Y150500000D03*
X108100000Y150500000D03*
X106200000Y149850000D03*
X108100000Y149850000D03*
X76200000Y151150000D03*
X78100000Y151150000D03*
X76200000Y150500000D03*
X78100000Y150500000D03*
X76200000Y149850000D03*
X78100000Y149850000D03*
X46200000Y151150000D03*
X48100000Y151150000D03*
X46200000Y150500000D03*
X48100000Y150500000D03*
X46200000Y149850000D03*
X48100000Y149850000D03*
X196200000Y181150000D03*
X198100000Y181150000D03*
X196200000Y180500000D03*
X198100000Y180500000D03*
X196200000Y179850000D03*
X198100000Y179850000D03*
X166200000Y181150000D03*
X168100000Y181150000D03*
X166200000Y180500000D03*
X168100000Y180500000D03*
X166200000Y179850000D03*
X168100000Y179850000D03*
X136200000Y181150000D03*
X138100000Y181150000D03*
X136200000Y180500000D03*
X138100000Y180500000D03*
X136200000Y179850000D03*
X138100000Y179850000D03*
X106200000Y181150000D03*
X108100000Y181150000D03*
X106200000Y180500000D03*
X108100000Y180500000D03*
X106200000Y179850000D03*
X108100000Y179850000D03*
X76200000Y181150000D03*
X78100000Y181150000D03*
X76200000Y180500000D03*
X78100000Y180500000D03*
X76200000Y179850000D03*
X78100000Y179850000D03*
D17*
X201650000Y29500000D03*
X201650000Y31500000D03*
X171650000Y29500000D03*
X171650000Y31500000D03*
X141650000Y29500000D03*
X141650000Y31500000D03*
X111650000Y29500000D03*
X111650000Y31500000D03*
X81650000Y29500000D03*
X81650000Y31500000D03*
X51650000Y29500000D03*
X51650000Y31500000D03*
X201650000Y59500000D03*
X201650000Y61500000D03*
X171650000Y59500000D03*
X171650000Y61500000D03*
X141650000Y59500000D03*
X141650000Y61500000D03*
X111650000Y59500000D03*
X111650000Y61500000D03*
X81650000Y59500000D03*
X81650000Y61500000D03*
X51650000Y59500000D03*
X51650000Y61500000D03*
X201650000Y89500000D03*
X201650000Y91500000D03*
X171650000Y89500000D03*
X171650000Y91500000D03*
X141650000Y89500000D03*
X141650000Y91500000D03*
X111650000Y89500000D03*
X111650000Y91500000D03*
X81650000Y89500000D03*
X81650000Y91500000D03*
X51650000Y89500000D03*
X51650000Y91500000D03*
X201650000Y119500000D03*
X201650000Y121500000D03*
X171650000Y119500000D03*
X171650000Y121500000D03*
X141650000Y119500000D03*
X141650000Y121500000D03*
X111650000Y119500000D03*
X111650000Y121500000D03*
X81650000Y119500000D03*
X81650000Y121500000D03*
X51650000Y119500000D03*
X51650000Y121500000D03*
X201650000Y149500000D03*
X201650000Y151500000D03*
X171650000Y149500000D03*
X171650000Y151500000D03*
X141650000Y149500000D03*
X141650000Y151500000D03*
X111650000Y149500000D03*
X111650000Y151500000D03*
X81650000Y149500000D03*
X81650000Y151500000D03*
X51650000Y149500000D03*
X51650000Y151500000D03*
X201650000Y179500000D03*
X201650000Y181500000D03*
X171650000Y179500000D03*
X171650000Y181500000D03*
X141650000Y179500000D03*
X141650000Y181500000D03*
X111650000Y179500000D03*
X111650000Y181500000D03*
X81650000Y179500000D03*
X81650000Y181500000D03*
X199650000Y29500000D03*
X199650000Y31500000D03*
X169650000Y29500000D03*
X169650000Y31500000D03*
X139650000Y29500000D03*
X139650000Y31500000D03*
X109650000Y29500000D03*
X109650000Y31500000D03*
X79650000Y29500000D03*
X79650000Y31500000D03*
X49650000Y29500000D03*
X49650000Y31500000D03*
X199650000Y59500000D03*
X199650000Y61500000D03*
X169650000Y59500000D03*
X169650000Y61500000D03*
X139650000Y59500000D03*
X139650000Y61500000D03*
X109650000Y59500000D03*
X109650000Y61500000D03*
X79650000Y59500000D03*
X79650000Y61500000D03*
X49650000Y59500000D03*
X49650000Y61500000D03*
X199650000Y89500000D03*
X199650000Y91500000D03*
X169650000Y89500000D03*
X169650000Y91500000D03*
X139650000Y89500000D03*
X139650000Y91500000D03*
X109650000Y89500000D03*
X109650000Y91500000D03*
X79650000Y89500000D03*
X79650000Y91500000D03*
X49650000Y89500000D03*
X49650000Y91500000D03*
X199650000Y119500000D03*
X199650000Y121500000D03*
X169650000Y119500000D03*
X169650000Y121500000D03*
X139650000Y119500000D03*
X139650000Y121500000D03*
X109650000Y119500000D03*
X109650000Y121500000D03*
X79650000Y119500000D03*
X79650000Y121500000D03*
X49650000Y119500000D03*
X49650000Y121500000D03*
X199650000Y149500000D03*
X199650000Y151500000D03*
X169650000Y149500000D03*
X169650000Y151500000D03*
X139650000Y149500000D03*
X139650000Y151500000D03*
X109650000Y149500000D03*
X109650000Y151500000D03*
X79650000Y149500000D03*
X79650000Y151500000D03*
X49650000Y149500000D03*
X49650000Y151500000D03*
X199650000Y179500000D03*
X199650000Y181500000D03*
X169650000Y179500000D03*
X169650000Y181500000D03*
X139650000Y179500000D03*
X139650000Y181500000D03*
X109650000Y179500000D03*
X109650000Y181500000D03*
X79650000Y179500000D03*
X79650000Y181500000D03*
D19*
X197200000Y40250000D03*
X199200000Y40250000D03*
X167200000Y40250000D03*
X169200000Y40250000D03*
X137200000Y40250000D03*
X139200000Y40250000D03*
X107200000Y40250000D03*
X109200000Y40250000D03*
X77200000Y40250000D03*
X79200000Y40250000D03*
X47200000Y40250000D03*
X49200000Y40250000D03*
X197200000Y70250000D03*
X199200000Y70250000D03*
X167200000Y70250000D03*
X169200000Y70250000D03*
X137200000Y70250000D03*
X139200000Y70250000D03*
X107200000Y70250000D03*
X109200000Y70250000D03*
X77200000Y70250000D03*
X79200000Y70250000D03*
X47200000Y70250000D03*
X49200000Y70250000D03*
X197200000Y100250000D03*
X199200000Y100250000D03*
X167200000Y100250000D03*
X169200000Y100250000D03*
X137200000Y100250000D03*
X139200000Y100250000D03*
X107200000Y100250000D03*
X109200000Y100250000D03*
X77200000Y100250000D03*
X79200000Y100250000D03*
X47200000Y100250000D03*
X49200000Y100250000D03*
X197200000Y130250000D03*
X199200000Y130250000D03*
X167200000Y130250000D03*
X169200000Y130250000D03*
X137200000Y130250000D03*
X139200000Y130250000D03*
X107200000Y130250000D03*
X109200000Y130250000D03*
X77200000Y130250000D03*
X79200000Y130250000D03*
X47200000Y130250000D03*
X49200000Y130250000D03*
X197200000Y160250000D03*
X199200000Y160250000D03*
X167200000Y160250000D03*
X169200000Y160250000D03*
X137200000Y160250000D03*
X139200000Y160250000D03*
X107200000Y160250000D03*
X109200000Y160250000D03*
X77200000Y160250000D03*
X79200000Y160250000D03*
X47200000Y160250000D03*
X49200000Y160250000D03*
X197200000Y190250000D03*
X199200000Y190250000D03*
X167200000Y190250000D03*
X169200000Y190250000D03*
X137200000Y190250000D03*
X139200000Y190250000D03*
X107200000Y190250000D03*
X109200000Y190250000D03*
X77200000Y190250000D03*
X79200000Y190250000D03*
D21*
X205450000Y33850000D03*
X203550000Y33850000D03*
X205450000Y34500000D03*
X203550000Y34500000D03*
X205450000Y35150000D03*
X203550000Y35150000D03*
X175450000Y33850000D03*
X173550000Y33850000D03*
X175450000Y34500000D03*
X173550000Y34500000D03*
X175450000Y35150000D03*
X173550000Y35150000D03*
X145450000Y33850000D03*
X143550000Y33850000D03*
X145450000Y34500000D03*
X143550000Y34500000D03*
X145450000Y35150000D03*
X143550000Y35150000D03*
X115450000Y33850000D03*
X113550000Y33850000D03*
X115450000Y34500000D03*
X113550000Y34500000D03*
X115450000Y35150000D03*
X113550000Y35150000D03*
X85450000Y33850000D03*
X83550000Y33850000D03*
X85450000Y34500000D03*
X83550000Y34500000D03*
X85450000Y35150000D03*
X83550000Y35150000D03*
X55450000Y33850000D03*
X53550000Y33850000D03*
X55450000Y34500000D03*
X53550000Y34500000D03*
X55450000Y35150000D03*
X53550000Y35150000D03*
X205450000Y63850000D03*
X203550000Y63850000D03*
X205450000Y64500000D03*
X203550000Y64500000D03*
X205450000Y65150000D03*
X203550000Y65150000D03*
X175450000Y63850000D03*
X173550000Y63850000D03*
X175450000Y64500000D03*
X173550000Y64500000D03*
X175450000Y65150000D03*
X173550000Y65150000D03*
X145450000Y63850000D03*
X143550000Y63850000D03*
X145450000Y64500000D03*
X143550000Y64500000D03*
X145450000Y65150000D03*
X143550000Y65150000D03*
X115450000Y63850000D03*
X113550000Y63850000D03*
X115450000Y64500000D03*
X113550000Y64500000D03*
X115450000Y65150000D03*
X113550000Y65150000D03*
X85450000Y63850000D03*
X83550000Y63850000D03*
X85450000Y64500000D03*
X83550000Y64500000D03*
X85450000Y65150000D03*
X83550000Y65150000D03*
X55450000Y63850000D03*
X53550000Y63850000D03*
X55450000Y64500000D03*
X53550000Y64500000D03*
X55450000Y65150000D03*
X53550000Y65150000D03*
X205450000Y93850000D03*
X203550000Y93850000D03*
X205450000Y94500000D03*
X203550000Y94500000D03*
X205450000Y95150000D03*
X203550000Y95150000D03*
X175450000Y93850000D03*
X173550000Y93850000D03*
X175450000Y94500000D03*
X173550000Y94500000D03*
X175450000Y95150000D03*
X173550000Y95150000D03*
X145450000Y93850000D03*
X143550000Y93850000D03*
X145450000Y94500000D03*
X143550000Y94500000D03*
X145450000Y95150000D03*
X143550000Y95150000D03*
X115450000Y93850000D03*
X113550000Y93850000D03*
X115450000Y94500000D03*
X113550000Y94500000D03*
X115450000Y95150000D03*
X113550000Y95150000D03*
X85450000Y93850000D03*
X83550000Y93850000D03*
X85450000Y94500000D03*
X83550000Y94500000D03*
X85450000Y95150000D03*
X83550000Y95150000D03*
X55450000Y93850000D03*
X53550000Y93850000D03*
X55450000Y94500000D03*
X53550000Y94500000D03*
X55450000Y95150000D03*
X53550000Y95150000D03*
X205450000Y123850000D03*
X203550000Y123850000D03*
X205450000Y124500000D03*
X203550000Y124500000D03*
X205450000Y125150000D03*
X203550000Y125150000D03*
X175450000Y123850000D03*
X173550000Y123850000D03*
X175450000Y124500000D03*
X173550000Y124500000D03*
X175450000Y125150000D03*
X173550000Y125150000D03*
X145450000Y123850000D03*
X143550000Y123850000D03*
X145450000Y124500000D03*
X143550000Y124500000D03*
X145450000Y125150000D03*
X143550000Y125150000D03*
X115450000Y123850000D03*
X113550000Y123850000D03*
X115450000Y124500000D03*
X113550000Y124500000D03*
X115450000Y125150000D03*
X113550000Y125150000D03*
X85450000Y123850000D03*
X83550000Y123850000D03*
X85450000Y124500000D03*
X83550000Y124500000D03*
X85450000Y125150000D03*
X83550000Y125150000D03*
X55450000Y123850000D03*
X53550000Y123850000D03*
X55450000Y124500000D03*
X53550000Y124500000D03*
X55450000Y125150000D03*
X53550000Y125150000D03*
X205450000Y153850000D03*
X203550000Y153850000D03*
X205450000Y154500000D03*
X203550000Y154500000D03*
X205450000Y155150000D03*
X203550000Y155150000D03*
X175450000Y153850000D03*
X173550000Y153850000D03*
X175450000Y154500000D03*
X173550000Y154500000D03*
X175450000Y155150000D03*
X173550000Y155150000D03*
X145450000Y153850000D03*
X143550000Y153850000D03*
X145450000Y154500000D03*
X143550000Y154500000D03*
X145450000Y155150000D03*
X143550000Y155150000D03*
X115450000Y153850000D03*
X113550000Y153850000D03*
X115450000Y154500000D03*
X113550000Y154500000D03*
X115450000Y155150000D03*
X113550000Y155150000D03*
X85450000Y153850000D03*
X83550000Y153850000D03*
X85450000Y154500000D03*
X83550000Y154500000D03*
X85450000Y155150000D03*
X83550000Y155150000D03*
X55450000Y153850000D03*
X53550000Y153850000D03*
X55450000Y154500000D03*
X53550000Y154500000D03*
X55450000Y155150000D03*
X53550000Y155150000D03*
X205450000Y183850000D03*
X203550000Y183850000D03*
X205450000Y184500000D03*
X203550000Y184500000D03*
X205450000Y185150000D03*
X203550000Y185150000D03*
X175450000Y183850000D03*
X173550000Y183850000D03*
X175450000Y184500000D03*
X173550000Y184500000D03*
X175450000Y185150000D03*
X173550000Y185150000D03*
X145450000Y183850000D03*
X143550000Y183850000D03*
X145450000Y184500000D03*
X143550000Y184500000D03*
X145450000Y185150000D03*
X143550000Y185150000D03*
X115450000Y183850000D03*
X113550000Y183850000D03*
X115450000Y184500000D03*
X113550000Y184500000D03*
X115450000Y185150000D03*
X113550000Y185150000D03*
X85450000Y183850000D03*
X83550000Y183850000D03*
X85450000Y184500000D03*
X83550000Y184500000D03*
X85450000Y185150000D03*
X83550000Y185150000D03*
D16*
X189250000Y39310000D03*
X189250000Y38040000D03*
X189250000Y36770000D03*
X189250000Y35500000D03*
X189250000Y34230000D03*
X189250000Y32960000D03*
X189250000Y31690000D03*
X194650000Y31690000D03*
X194650000Y32960000D03*
X194650000Y34230000D03*
X194650000Y35500000D03*
X194650000Y36770000D03*
X194650000Y38040000D03*
X194650000Y39310000D03*
X159250000Y39310000D03*
X159250000Y38040000D03*
X159250000Y36770000D03*
X159250000Y35500000D03*
X159250000Y34230000D03*
X159250000Y32960000D03*
X159250000Y31690000D03*
X164650000Y31690000D03*
X164650000Y32960000D03*
X164650000Y34230000D03*
X164650000Y35500000D03*
X164650000Y36770000D03*
X164650000Y38040000D03*
X164650000Y39310000D03*
X129250000Y39310000D03*
X129250000Y38040000D03*
X129250000Y36770000D03*
X129250000Y35500000D03*
X129250000Y34230000D03*
X129250000Y32960000D03*
X129250000Y31690000D03*
X134650000Y31690000D03*
X134650000Y32960000D03*
X134650000Y34230000D03*
X134650000Y35500000D03*
X134650000Y36770000D03*
X134650000Y38040000D03*
X134650000Y39310000D03*
X99250000Y39310000D03*
X99250000Y38040000D03*
X99250000Y36770000D03*
X99250000Y35500000D03*
X99250000Y34230000D03*
X99250000Y32960000D03*
X99250000Y31690000D03*
X104650000Y31690000D03*
X104650000Y32960000D03*
X104650000Y34230000D03*
X104650000Y35500000D03*
X104650000Y36770000D03*
X104650000Y38040000D03*
X104650000Y39310000D03*
X69250000Y39310000D03*
X69250000Y38040000D03*
X69250000Y36770000D03*
X69250000Y35500000D03*
X69250000Y34230000D03*
X69250000Y32960000D03*
X69250000Y31690000D03*
X74650000Y31690000D03*
X74650000Y32960000D03*
X74650000Y34230000D03*
X74650000Y35500000D03*
X74650000Y36770000D03*
X74650000Y38040000D03*
X74650000Y39310000D03*
X39250000Y39310000D03*
X39250000Y38040000D03*
X39250000Y36770000D03*
X39250000Y35500000D03*
X39250000Y34230000D03*
X39250000Y32960000D03*
X39250000Y31690000D03*
X44650000Y31690000D03*
X44650000Y32960000D03*
X44650000Y34230000D03*
X44650000Y35500000D03*
X44650000Y36770000D03*
X44650000Y38040000D03*
X44650000Y39310000D03*
X189250000Y69310000D03*
X189250000Y68040000D03*
X189250000Y66770000D03*
X189250000Y65500000D03*
X189250000Y64230000D03*
X189250000Y62960000D03*
X189250000Y61690000D03*
X194650000Y61690000D03*
X194650000Y62960000D03*
X194650000Y64230000D03*
X194650000Y65500000D03*
X194650000Y66770000D03*
X194650000Y68040000D03*
X194650000Y69310000D03*
X159250000Y69310000D03*
X159250000Y68040000D03*
X159250000Y66770000D03*
X159250000Y65500000D03*
X159250000Y64230000D03*
X159250000Y62960000D03*
X159250000Y61690000D03*
X164650000Y61690000D03*
X164650000Y62960000D03*
X164650000Y64230000D03*
X164650000Y65500000D03*
X164650000Y66770000D03*
X164650000Y68040000D03*
X164650000Y69310000D03*
X129250000Y69310000D03*
X129250000Y68040000D03*
X129250000Y66770000D03*
X129250000Y65500000D03*
X129250000Y64230000D03*
X129250000Y62960000D03*
X129250000Y61690000D03*
X134650000Y61690000D03*
X134650000Y62960000D03*
X134650000Y64230000D03*
X134650000Y65500000D03*
X134650000Y66770000D03*
X134650000Y68040000D03*
X134650000Y69310000D03*
X99250000Y69310000D03*
X99250000Y68040000D03*
X99250000Y66770000D03*
X99250000Y65500000D03*
X99250000Y64230000D03*
X99250000Y62960000D03*
X99250000Y61690000D03*
X104650000Y61690000D03*
X104650000Y62960000D03*
X104650000Y64230000D03*
X104650000Y65500000D03*
X104650000Y66770000D03*
X104650000Y68040000D03*
X104650000Y69310000D03*
X69250000Y69310000D03*
X69250000Y68040000D03*
X69250000Y66770000D03*
X69250000Y65500000D03*
X69250000Y64230000D03*
X69250000Y62960000D03*
X69250000Y61690000D03*
X74650000Y61690000D03*
X74650000Y62960000D03*
X74650000Y64230000D03*
X74650000Y65500000D03*
X74650000Y66770000D03*
X74650000Y68040000D03*
X74650000Y69310000D03*
X39250000Y69310000D03*
X39250000Y68040000D03*
X39250000Y66770000D03*
X39250000Y65500000D03*
X39250000Y64230000D03*
X39250000Y62960000D03*
X39250000Y61690000D03*
X44650000Y61690000D03*
X44650000Y62960000D03*
X44650000Y64230000D03*
X44650000Y65500000D03*
X44650000Y66770000D03*
X44650000Y68040000D03*
X44650000Y69310000D03*
X189250000Y99310000D03*
X189250000Y98040000D03*
X189250000Y96770000D03*
X189250000Y95500000D03*
X189250000Y94230000D03*
X189250000Y92960000D03*
X189250000Y91690000D03*
X194650000Y91690000D03*
X194650000Y92960000D03*
X194650000Y94230000D03*
X194650000Y95500000D03*
X194650000Y96770000D03*
X194650000Y98040000D03*
X194650000Y99310000D03*
X159250000Y99310000D03*
X159250000Y98040000D03*
X159250000Y96770000D03*
X159250000Y95500000D03*
X159250000Y94230000D03*
X159250000Y92960000D03*
X159250000Y91690000D03*
X164650000Y91690000D03*
X164650000Y92960000D03*
X164650000Y94230000D03*
X164650000Y95500000D03*
X164650000Y96770000D03*
X164650000Y98040000D03*
X164650000Y99310000D03*
X129250000Y99310000D03*
X129250000Y98040000D03*
X129250000Y96770000D03*
X129250000Y95500000D03*
X129250000Y94230000D03*
X129250000Y92960000D03*
X129250000Y91690000D03*
X134650000Y91690000D03*
X134650000Y92960000D03*
X134650000Y94230000D03*
X134650000Y95500000D03*
X134650000Y96770000D03*
X134650000Y98040000D03*
X134650000Y99310000D03*
X99250000Y99310000D03*
X99250000Y98040000D03*
X99250000Y96770000D03*
X99250000Y95500000D03*
X99250000Y94230000D03*
X99250000Y92960000D03*
X99250000Y91690000D03*
X104650000Y91690000D03*
X104650000Y92960000D03*
X104650000Y94230000D03*
X104650000Y95500000D03*
X104650000Y96770000D03*
X104650000Y98040000D03*
X104650000Y99310000D03*
X69250000Y99310000D03*
X69250000Y98040000D03*
X69250000Y96770000D03*
X69250000Y95500000D03*
X69250000Y94230000D03*
X69250000Y92960000D03*
X69250000Y91690000D03*
X74650000Y91690000D03*
X74650000Y92960000D03*
X74650000Y94230000D03*
X74650000Y95500000D03*
X74650000Y96770000D03*
X74650000Y98040000D03*
X74650000Y99310000D03*
X39250000Y99310000D03*
X39250000Y98040000D03*
X39250000Y96770000D03*
X39250000Y95500000D03*
X39250000Y94230000D03*
X39250000Y92960000D03*
X39250000Y91690000D03*
X44650000Y91690000D03*
X44650000Y92960000D03*
X44650000Y94230000D03*
X44650000Y95500000D03*
X44650000Y96770000D03*
X44650000Y98040000D03*
X44650000Y99310000D03*
X189250000Y129310000D03*
X189250000Y128040000D03*
X189250000Y126770000D03*
X189250000Y125500000D03*
X189250000Y124230000D03*
X189250000Y122960000D03*
X189250000Y121690000D03*
X194650000Y121690000D03*
X194650000Y122960000D03*
X194650000Y124230000D03*
X194650000Y125500000D03*
X194650000Y126770000D03*
X194650000Y128040000D03*
X194650000Y129310000D03*
X159250000Y129310000D03*
X159250000Y128040000D03*
X159250000Y126770000D03*
X159250000Y125500000D03*
X159250000Y124230000D03*
X159250000Y122960000D03*
X159250000Y121690000D03*
X164650000Y121690000D03*
X164650000Y122960000D03*
X164650000Y124230000D03*
X164650000Y125500000D03*
X164650000Y126770000D03*
X164650000Y128040000D03*
X164650000Y129310000D03*
X129250000Y129310000D03*
X129250000Y128040000D03*
X129250000Y126770000D03*
X129250000Y125500000D03*
X129250000Y124230000D03*
X129250000Y122960000D03*
X129250000Y121690000D03*
X134650000Y121690000D03*
X134650000Y122960000D03*
X134650000Y124230000D03*
X134650000Y125500000D03*
X134650000Y126770000D03*
X134650000Y128040000D03*
X134650000Y129310000D03*
X99250000Y129310000D03*
X99250000Y128040000D03*
X99250000Y126770000D03*
X99250000Y125500000D03*
X99250000Y124230000D03*
X99250000Y122960000D03*
X99250000Y121690000D03*
X104650000Y121690000D03*
X104650000Y122960000D03*
X104650000Y124230000D03*
X104650000Y125500000D03*
X104650000Y126770000D03*
X104650000Y128040000D03*
X104650000Y129310000D03*
X69250000Y129310000D03*
X69250000Y128040000D03*
X69250000Y126770000D03*
X69250000Y125500000D03*
X69250000Y124230000D03*
X69250000Y122960000D03*
X69250000Y121690000D03*
X74650000Y121690000D03*
X74650000Y122960000D03*
X74650000Y124230000D03*
X74650000Y125500000D03*
X74650000Y126770000D03*
X74650000Y128040000D03*
X74650000Y129310000D03*
X39250000Y129310000D03*
X39250000Y128040000D03*
X39250000Y126770000D03*
X39250000Y125500000D03*
X39250000Y124230000D03*
X39250000Y122960000D03*
X39250000Y121690000D03*
X44650000Y121690000D03*
X44650000Y122960000D03*
X44650000Y124230000D03*
X44650000Y125500000D03*
X44650000Y126770000D03*
X44650000Y128040000D03*
X44650000Y129310000D03*
X189250000Y159310000D03*
X189250000Y158040000D03*
X189250000Y156770000D03*
X189250000Y155500000D03*
X189250000Y154230000D03*
X189250000Y152960000D03*
X189250000Y151690000D03*
X194650000Y151690000D03*
X194650000Y152960000D03*
X194650000Y154230000D03*
X194650000Y155500000D03*
X194650000Y156770000D03*
X194650000Y158040000D03*
X194650000Y159310000D03*
X159250000Y159310000D03*
X159250000Y158040000D03*
X159250000Y156770000D03*
X159250000Y155500000D03*
X159250000Y154230000D03*
X159250000Y152960000D03*
X159250000Y151690000D03*
X164650000Y151690000D03*
X164650000Y152960000D03*
X164650000Y154230000D03*
X164650000Y155500000D03*
X164650000Y156770000D03*
X164650000Y158040000D03*
X164650000Y159310000D03*
X129250000Y159310000D03*
X129250000Y158040000D03*
X129250000Y156770000D03*
X129250000Y155500000D03*
X129250000Y154230000D03*
X129250000Y152960000D03*
X129250000Y151690000D03*
X134650000Y151690000D03*
X134650000Y152960000D03*
X134650000Y154230000D03*
X134650000Y155500000D03*
X134650000Y156770000D03*
X134650000Y158040000D03*
X134650000Y159310000D03*
X99250000Y159310000D03*
X99250000Y158040000D03*
X99250000Y156770000D03*
X99250000Y155500000D03*
X99250000Y154230000D03*
X99250000Y152960000D03*
X99250000Y151690000D03*
X104650000Y151690000D03*
X104650000Y152960000D03*
X104650000Y154230000D03*
X104650000Y155500000D03*
X104650000Y156770000D03*
X104650000Y158040000D03*
X104650000Y159310000D03*
X69250000Y159310000D03*
X69250000Y158040000D03*
X69250000Y156770000D03*
X69250000Y155500000D03*
X69250000Y154230000D03*
X69250000Y152960000D03*
X69250000Y151690000D03*
X74650000Y151690000D03*
X74650000Y152960000D03*
X74650000Y154230000D03*
X74650000Y155500000D03*
X74650000Y156770000D03*
X74650000Y158040000D03*
X74650000Y159310000D03*
X39250000Y159310000D03*
X39250000Y158040000D03*
X39250000Y156770000D03*
X39250000Y155500000D03*
X39250000Y154230000D03*
X39250000Y152960000D03*
X39250000Y151690000D03*
X44650000Y151690000D03*
X44650000Y152960000D03*
X44650000Y154230000D03*
X44650000Y155500000D03*
X44650000Y156770000D03*
X44650000Y158040000D03*
X44650000Y159310000D03*
X189250000Y189310000D03*
X189250000Y188040000D03*
X189250000Y186770000D03*
X189250000Y185500000D03*
X189250000Y184230000D03*
X189250000Y182960000D03*
X189250000Y181690000D03*
X194650000Y181690000D03*
X194650000Y182960000D03*
X194650000Y184230000D03*
X194650000Y185500000D03*
X194650000Y186770000D03*
X194650000Y188040000D03*
X194650000Y189310000D03*
X159250000Y189310000D03*
X159250000Y188040000D03*
X159250000Y186770000D03*
X159250000Y185500000D03*
X159250000Y184230000D03*
X159250000Y182960000D03*
X159250000Y181690000D03*
X164650000Y181690000D03*
X164650000Y182960000D03*
X164650000Y184230000D03*
X164650000Y185500000D03*
X164650000Y186770000D03*
X164650000Y188040000D03*
X164650000Y189310000D03*
X129250000Y189310000D03*
X129250000Y188040000D03*
X129250000Y186770000D03*
X129250000Y185500000D03*
X129250000Y184230000D03*
X129250000Y182960000D03*
X129250000Y181690000D03*
X134650000Y181690000D03*
X134650000Y182960000D03*
X134650000Y184230000D03*
X134650000Y185500000D03*
X134650000Y186770000D03*
X134650000Y188040000D03*
X134650000Y189310000D03*
X99250000Y189310000D03*
X99250000Y188040000D03*
X99250000Y186770000D03*
X99250000Y185500000D03*
X99250000Y184230000D03*
X99250000Y182960000D03*
X99250000Y181690000D03*
X104650000Y181690000D03*
X104650000Y182960000D03*
X104650000Y184230000D03*
X104650000Y185500000D03*
X104650000Y186770000D03*
X104650000Y188040000D03*
X104650000Y189310000D03*
X69250000Y189310000D03*
X69250000Y188040000D03*
X69250000Y186770000D03*
X69250000Y185500000D03*
X69250000Y184230000D03*
X69250000Y182960000D03*
X69250000Y181690000D03*
X74650000Y181690000D03*
X74650000Y182960000D03*
X74650000Y184230000D03*
X74650000Y185500000D03*
X74650000Y186770000D03*
X74650000Y188040000D03*
X74650000Y189310000D03*
D17*
X205650000Y29500000D03*
X205650000Y31500000D03*
X175650000Y29500000D03*
X175650000Y31500000D03*
X145650000Y29500000D03*
X145650000Y31500000D03*
X115650000Y29500000D03*
X115650000Y31500000D03*
X85650000Y29500000D03*
X85650000Y31500000D03*
X55650000Y29500000D03*
X55650000Y31500000D03*
X205650000Y59500000D03*
X205650000Y61500000D03*
X175650000Y59500000D03*
X175650000Y61500000D03*
X145650000Y59500000D03*
X145650000Y61500000D03*
X115650000Y59500000D03*
X115650000Y61500000D03*
X85650000Y59500000D03*
X85650000Y61500000D03*
X55650000Y59500000D03*
X55650000Y61500000D03*
X205650000Y89500000D03*
X205650000Y91500000D03*
X175650000Y89500000D03*
X175650000Y91500000D03*
X145650000Y89500000D03*
X145650000Y91500000D03*
X115650000Y89500000D03*
X115650000Y91500000D03*
X85650000Y89500000D03*
X85650000Y91500000D03*
X55650000Y89500000D03*
X55650000Y91500000D03*
X205650000Y119500000D03*
X205650000Y121500000D03*
X175650000Y119500000D03*
X175650000Y121500000D03*
X145650000Y119500000D03*
X145650000Y121500000D03*
X115650000Y119500000D03*
X115650000Y121500000D03*
X85650000Y119500000D03*
X85650000Y121500000D03*
X55650000Y119500000D03*
X55650000Y121500000D03*
X205650000Y149500000D03*
X205650000Y151500000D03*
X175650000Y149500000D03*
X175650000Y151500000D03*
X145650000Y149500000D03*
X145650000Y151500000D03*
X115650000Y149500000D03*
X115650000Y151500000D03*
X85650000Y149500000D03*
X85650000Y151500000D03*
X55650000Y149500000D03*
X55650000Y151500000D03*
X205650000Y179500000D03*
X205650000Y181500000D03*
X175650000Y179500000D03*
X175650000Y181500000D03*
X145650000Y179500000D03*
X145650000Y181500000D03*
X115650000Y179500000D03*
X115650000Y181500000D03*
X85650000Y179500000D03*
X85650000Y181500000D03*
X203650000Y29500000D03*
X203650000Y31500000D03*
X173650000Y29500000D03*
X173650000Y31500000D03*
X143650000Y29500000D03*
X143650000Y31500000D03*
X113650000Y29500000D03*
X113650000Y31500000D03*
X83650000Y29500000D03*
X83650000Y31500000D03*
X53650000Y29500000D03*
X53650000Y31500000D03*
X203650000Y59500000D03*
X203650000Y61500000D03*
X173650000Y59500000D03*
X173650000Y61500000D03*
X143650000Y59500000D03*
X143650000Y61500000D03*
X113650000Y59500000D03*
X113650000Y61500000D03*
X83650000Y59500000D03*
X83650000Y61500000D03*
X53650000Y59500000D03*
X53650000Y61500000D03*
X203650000Y89500000D03*
X203650000Y91500000D03*
X173650000Y89500000D03*
X173650000Y91500000D03*
X143650000Y89500000D03*
X143650000Y91500000D03*
X113650000Y89500000D03*
X113650000Y91500000D03*
X83650000Y89500000D03*
X83650000Y91500000D03*
X53650000Y89500000D03*
X53650000Y91500000D03*
X203650000Y119500000D03*
X203650000Y121500000D03*
X173650000Y119500000D03*
X173650000Y121500000D03*
X143650000Y119500000D03*
X143650000Y121500000D03*
X113650000Y119500000D03*
X113650000Y121500000D03*
X83650000Y119500000D03*
X83650000Y121500000D03*
X53650000Y119500000D03*
X53650000Y121500000D03*
X203650000Y149500000D03*
X203650000Y151500000D03*
X173650000Y149500000D03*
X173650000Y151500000D03*
X143650000Y149500000D03*
X143650000Y151500000D03*
X113650000Y149500000D03*
X113650000Y151500000D03*
X83650000Y149500000D03*
X83650000Y151500000D03*
X53650000Y149500000D03*
X53650000Y151500000D03*
X203650000Y179500000D03*
X203650000Y181500000D03*
X173650000Y179500000D03*
X173650000Y181500000D03*
X143650000Y179500000D03*
X143650000Y181500000D03*
X113650000Y179500000D03*
X113650000Y181500000D03*
X83650000Y179500000D03*
X83650000Y181500000D03*
D16*
X44650000Y170690000D03*
X44650000Y171960000D03*
X44650000Y173230000D03*
X44650000Y174500000D03*
X44650000Y175770000D03*
X44650000Y177040000D03*
X44650000Y178310000D03*
X39250000Y178310000D03*
X39250000Y177040000D03*
X39250000Y175770000D03*
X39250000Y174500000D03*
X39250000Y173230000D03*
X39250000Y171960000D03*
X39250000Y170690000D03*
D21*
X55450000Y183850000D03*
X53550000Y183850000D03*
X55450000Y184500000D03*
X53550000Y184500000D03*
X55450000Y185150000D03*
X53550000Y185150000D03*
D16*
X39250000Y189310000D03*
X39250000Y188040000D03*
X39250000Y186770000D03*
X39250000Y185500000D03*
X39250000Y184230000D03*
X39250000Y182960000D03*
X39250000Y181690000D03*
X44650000Y181690000D03*
X44650000Y182960000D03*
X44650000Y184230000D03*
X44650000Y185500000D03*
X44650000Y186770000D03*
X44650000Y188040000D03*
X44650000Y189310000D03*
D15*
X43950000Y168500000D03*
X39950000Y168500000D03*
X42610000Y168500000D03*
X41290000Y168500000D03*
X42610000Y165500000D03*
X43950000Y165500000D03*
X39950000Y165500000D03*
X41290000Y165500000D03*
D19*
X47200000Y190250000D03*
X49200000Y190250000D03*
X47750000Y175500000D03*
X49750000Y175500000D03*
D17*
X53650000Y179500000D03*
X53650000Y181500000D03*
X51650000Y179500000D03*
X51650000Y181500000D03*
X55650000Y179500000D03*
X55650000Y181500000D03*
X49650000Y179500000D03*
X49650000Y181500000D03*
D12*
X34950000Y184960000D03*
D13*
X34950000Y187500000D03*
D12*
X49950000Y184960000D03*
D13*
X49950000Y187500000D03*
D12*
X34950000Y169960000D03*
D13*
X34950000Y172500000D03*
D12*
X49950000Y169960000D03*
D13*
X49950000Y172500000D03*
D21*
X46200000Y181150000D03*
X48100000Y181150000D03*
X46200000Y180500000D03*
X48100000Y180500000D03*
X46200000Y179850000D03*
X48100000Y179850000D03*
D15*
X35450000Y177500000D03*
X35450000Y181500000D03*
X35450000Y178840000D03*
X35450000Y180160000D03*
X32450000Y178840000D03*
X32450000Y177500000D03*
X32450000Y181500000D03*
X32450000Y180160000D03*
D17*
X5000000Y164500000D03*
X5000000Y162500000D03*
D12*
X217500000Y184960000D03*
D13*
X217500000Y187500000D03*
D12*
X217500000Y169960000D03*
D13*
X217500000Y172500000D03*
D12*
X217500000Y154960000D03*
D13*
X217500000Y157500000D03*
D12*
X217500000Y139960000D03*
D13*
X217500000Y142500000D03*
D16*
X7300000Y167310000D03*
X7300000Y166040000D03*
X7300000Y164770000D03*
X7300000Y163500000D03*
X7300000Y162230000D03*
X7300000Y160960000D03*
X7300000Y159690000D03*
X12700000Y159690000D03*
X12700000Y160960000D03*
X12700000Y162230000D03*
X12700000Y163500000D03*
X12700000Y164770000D03*
X12700000Y166040000D03*
X12700000Y167310000D03*
D22*
X7500000Y207540000D03*
D23*
X7500000Y205000000D03*
D12*
X20000000Y184960000D03*
D13*
X20000000Y187500000D03*
D12*
X20000000Y169960000D03*
D13*
X20000000Y172500000D03*
D12*
X20000000Y154960000D03*
D13*
X20000000Y157500000D03*
D12*
X20000000Y139960000D03*
D13*
X20000000Y142500000D03*
D14*
X217500000Y193950000D03*
X217500000Y191050000D03*
X217500000Y178950000D03*
X217500000Y176050000D03*
D15*
X8500000Y152500000D03*
X8500000Y148500000D03*
X8500000Y151160000D03*
X8500000Y149840000D03*
X11500000Y151160000D03*
X11500000Y152500000D03*
X11500000Y148500000D03*
X11500000Y149840000D03*
D14*
X217500000Y163950000D03*
X217500000Y161050000D03*
X217500000Y148950000D03*
X217500000Y146050000D03*
D24*
X17500000Y210000000D03*
X20040000Y210000000D03*
X14960000Y210000000D03*
D19*
X57000000Y216500000D03*
X59000000Y216500000D03*
D18*
X33460000Y6000000D03*
D13*
X36000000Y6000000D03*
D18*
X48460000Y6000000D03*
D13*
X51000000Y6000000D03*
D18*
X63460000Y6000000D03*
D13*
X66000000Y6000000D03*
D18*
X78460000Y6000000D03*
D13*
X81000000Y6000000D03*
D20*
X59810000Y214200000D03*
X58540000Y214200000D03*
X57270000Y214200000D03*
X56000000Y214200000D03*
X54730000Y214200000D03*
X53460000Y214200000D03*
X52190000Y214200000D03*
X52190000Y208800000D03*
X53460000Y208800000D03*
X54730000Y208800000D03*
X56000000Y208800000D03*
X57270000Y208800000D03*
X58540000Y208800000D03*
X59810000Y208800000D03*
D18*
X33460000Y202500000D03*
D13*
X36000000Y202500000D03*
D18*
X48460000Y202500000D03*
D13*
X51000000Y202500000D03*
D18*
X63460000Y202500000D03*
D13*
X66000000Y202500000D03*
D18*
X78460000Y202500000D03*
D13*
X81000000Y202500000D03*
D11*
X41450000Y6000000D03*
X38550000Y6000000D03*
X56450000Y6000000D03*
X53550000Y6000000D03*
D15*
X71000000Y213000000D03*
X67000000Y213000000D03*
X69660000Y213000000D03*
X68340000Y213000000D03*
X69660000Y210000000D03*
X71000000Y210000000D03*
X67000000Y210000000D03*
X68340000Y210000000D03*
D11*
X71450000Y6000000D03*
X68550000Y6000000D03*
X86450000Y6000000D03*
X83550000Y6000000D03*
M02*
